<svg width="24" height="24" viewBox="0 0 24 24" fill="none" xmlns="http://www.w3.org/2000/svg">
<path d="M22.5 11.4166C22.504 12.9565 22.1442 14.4755 21.45 15.85C20.6268 17.497 19.3614 18.8823 17.7954 19.8508C16.2293 20.8193 14.4246 21.3326 12.5833 21.3333C11.0435 21.3373 9.52447 20.9776 8.15 20.2833L1.5 22.5L3.71667 15.85C3.02242 14.4755 2.66265 12.9565 2.66667 11.4166C2.66738 9.57536 3.18071 7.77063 4.14917 6.20461C5.11763 4.6386 6.50296 3.37313 8.15 2.54997C9.52447 1.85573 11.0435 1.49596 12.5833 1.49997H13.1667C15.5984 1.63413 17.8952 2.66053 19.6173 4.38264C21.3394 6.10476 22.3658 8.40157 22.5 10.8333V11.4166Z" stroke="white" stroke-width="2" stroke-linecap="round" stroke-linejoin="round"/>
</svg>
