<svg width="32" height="32" viewBox="0 0 32 32" fill="none" xmlns="http://www.w3.org/2000/svg">
<path d="M28.4756 27.7759H4.01465" stroke="#DF74B4" stroke-width="2" stroke-linecap="round" stroke-linejoin="round"/>
<path d="M16.2448 27.776L16.2468 18.712C16.2468 15.75 15.5448 12.844 14.2148 10.228" stroke="#DF74B4" stroke-width="2" stroke-linecap="round" stroke-linejoin="round"/>
<path d="M16.2478 23.3587L11.3838 19.7637" stroke="#DF74B4" stroke-width="2" stroke-linecap="round" stroke-linejoin="round"/>
<path d="M21.501 14.1909L16.248 18.8619" stroke="#DF74B4" stroke-width="2" stroke-linecap="round" stroke-linejoin="round"/>
<path fill-rule="evenodd" clip-rule="evenodd" d="M26.5944 14.5237C25.1954 15.7617 23.0564 15.6298 21.8184 14.2298C20.5804 12.8307 20.7124 10.6917 22.1124 9.45475C23.5124 8.21575 28.9014 7.96875 28.9014 7.96875C28.9014 7.96875 27.9944 13.2867 26.5944 14.5237Z" fill="#DF74B4" stroke="#DF74B4" stroke-width="2" stroke-linecap="round" stroke-linejoin="round"/>
<path fill-rule="evenodd" clip-rule="evenodd" d="M6.903 21.056C8.573 21.896 10.607 21.223 11.446 19.553C12.286 17.883 11.613 15.849 9.943 15.01C8.273 14.17 3 15.307 3 15.307C3 15.307 5.234 20.217 6.903 21.056Z" fill="#DF74B4" stroke="#DF74B4" stroke-width="2" stroke-linecap="round" stroke-linejoin="round"/>
<path fill-rule="evenodd" clip-rule="evenodd" d="M15.329 5.393C16.309 6.984 15.814 9.068 14.224 10.048C12.633 11.029 10.548 10.534 9.56697 8.943C8.58697 7.352 9.26397 2 9.26397 2C9.26397 2 14.349 3.802 15.329 5.393Z" fill="#DF74B4" stroke="#DF74B4" stroke-width="2" stroke-linecap="round" stroke-linejoin="round"/>
</svg>
