<svg width="32" height="32" viewBox="0 0 32 32" fill="none" xmlns="http://www.w3.org/2000/svg">
<path d="M28.4756 27.7759H4.01465" stroke="#9E96CE" stroke-width="2" stroke-linecap="round" stroke-linejoin="round"/>
<path d="M16.0052 27L16 24C16 21.9885 16.5 18.5 19 16.5" stroke="#9E96CE" stroke-width="2" stroke-linecap="round" stroke-linejoin="round"/>
<path d="M16 27C16 27 15.5 21.5 13 21" stroke="#9E96CE" stroke-width="2" stroke-linecap="round" stroke-linejoin="round"/>
<path fill-rule="evenodd" clip-rule="evenodd" d="M23.6247 16.555C22.2257 17.793 20.0867 17.661 18.8487 16.261C17.6107 14.862 17.7427 12.723 19.1427 11.486C20.5427 10.247 25.9317 10 25.9317 10C25.9317 10 25.0247 15.318 23.6247 16.555Z" fill="#9E96CE" stroke="#9E96CE" stroke-width="2" stroke-linecap="round" stroke-linejoin="round"/>
<path fill-rule="evenodd" clip-rule="evenodd" d="M8.54509 21.6769C10.0619 22.4273 11.9094 21.8261 12.6715 20.3344C13.4345 18.8426 12.8232 17.0257 11.3063 16.2763C9.78946 15.526 5 16.5416 5 16.5416C5 16.5416 7.02914 20.9275 8.54509 21.6769Z" fill="#9E96CE" stroke="#9E96CE" stroke-width="2" stroke-linecap="round" stroke-linejoin="round"/>
</svg>
