<svg width="18" height="18" viewBox="0 0 18 18" fill="none" xmlns="http://www.w3.org/2000/svg">
<path d="M5.24902 2.24316C4.8348 2.24316 4.49902 2.57916 4.49902 2.99316C4.49902 3.40716 4.8348 3.74316 5.24902 3.74316V5.24316H2.99902H2.24902C1.8348 5.24316 1.49902 5.57916 1.49902 5.99316C1.49902 6.40716 1.8348 6.74316 2.24902 6.74316V14.9932C2.24902 15.4072 2.5848 15.7432 2.99902 15.7432H5.99902H8.99902C9.41302 15.7432 9.74902 15.4072 9.74902 14.9932V13.4932C9.74902 13.0792 10.085 12.7432 10.499 12.7432C10.913 12.7432 11.249 13.0792 11.249 13.4932V14.9932C11.249 15.4072 11.585 15.7432 11.999 15.7432H14.999C15.413 15.7432 15.749 15.4072 15.749 14.9932V3.74316C16.163 3.74316 16.499 3.40716 16.499 2.99316C16.499 2.57916 16.163 2.24316 15.749 2.24316H5.24902ZM6.74902 3.74316H14.249V14.2432H12.749V13.4932C12.749 12.2504 11.7418 11.2432 10.499 11.2432C9.25627 11.2432 8.24902 12.2504 8.24902 13.4932V14.2432H6.74902V5.99316V3.74316ZM8.99902 5.24316C8.58502 5.24316 8.24902 5.57916 8.24902 5.99316C8.24902 6.40716 8.58502 6.74316 8.99902 6.74316C9.41302 6.74316 9.74902 6.40716 9.74902 5.99316C9.74902 5.57916 9.41302 5.24316 8.99902 5.24316ZM11.999 5.24316C11.585 5.24316 11.249 5.57916 11.249 5.99316C11.249 6.40716 11.585 6.74316 11.999 6.74316C12.413 6.74316 12.749 6.40716 12.749 5.99316C12.749 5.57916 12.413 5.24316 11.999 5.24316ZM3.74902 6.74316H5.24902V14.2432H3.74902V6.74316ZM8.99902 8.24316C8.58502 8.24316 8.24902 8.57916 8.24902 8.99316C8.24902 9.40716 8.58502 9.74316 8.99902 9.74316C9.41302 9.74316 9.74902 9.40716 9.74902 8.99316C9.74902 8.57916 9.41302 8.24316 8.99902 8.24316ZM11.999 8.24316C11.585 8.24316 11.249 8.57916 11.249 8.99316C11.249 9.40716 11.585 9.74316 11.999 9.74316C12.413 9.74316 12.749 9.40716 12.749 8.99316C12.749 8.57916 12.413 8.24316 11.999 8.24316Z" fill="#E5E7EB"/>
</svg>
