<svg width="16" height="17" viewBox="0 0 16 17" fill="none" xmlns="http://www.w3.org/2000/svg">
<g opacity="0.7">
<path fill-rule="evenodd" clip-rule="evenodd" d="M4.36675 12.2396L4.43758 12.5938H12.2292L12.3001 12.2396H4.36675ZM3.72925 9.05212H12.9376L14.0001 3.73962L11.1667 6.57296L8.33341 3.73962L5.50008 6.57296L2.66675 3.73962L3.72925 9.05212Z" fill="white"/>
<path d="M4.43758 12.5938L3.70215 12.7409C3.77226 13.0914 4.08007 13.3438 4.43758 13.3438V12.5938ZM4.36675 12.2396V11.4896C4.14205 11.4896 3.9292 11.5904 3.78674 11.7641C3.64429 11.9379 3.58725 12.1664 3.63131 12.3867L4.36675 12.2396ZM12.2292 12.5938V13.3438C12.5868 13.3438 12.8946 13.0914 12.9647 12.7409L12.2292 12.5938ZM12.3001 12.2396L13.0355 12.3867C13.0796 12.1664 13.0225 11.9379 12.8801 11.7641C12.7376 11.5904 12.5248 11.4896 12.3001 11.4896V12.2396ZM3.72925 9.05212L2.99381 9.19921C3.06393 9.54978 3.37174 9.80212 3.72925 9.80212V9.05212ZM12.9376 9.05212V9.80212C13.2951 9.80212 13.6029 9.54978 13.673 9.19921L12.9376 9.05212ZM14.0001 3.73962L14.7355 3.88671C14.8003 3.56263 14.6454 3.23432 14.354 3.07837C14.0626 2.92242 13.7034 2.97559 13.4698 3.20929L14.0001 3.73962ZM11.1667 6.57296L10.6364 7.10329C10.7771 7.24394 10.9678 7.32296 11.1667 7.32296C11.3657 7.32296 11.5564 7.24394 11.6971 7.10329L11.1667 6.57296ZM8.33341 3.73962L8.86374 3.20929C8.72309 3.06864 8.53233 2.98962 8.33341 2.98962C8.1345 2.98962 7.94374 3.06864 7.80308 3.20929L8.33341 3.73962ZM5.50008 6.57296L4.96975 7.10329C5.1104 7.24394 5.30117 7.32296 5.50008 7.32296C5.69899 7.32296 5.88976 7.24394 6.03041 7.10329L5.50008 6.57296ZM2.66675 3.73962L3.19708 3.20929C2.96338 2.97559 2.60425 2.92242 2.31285 3.07837C2.02146 3.23432 1.8665 3.56263 1.93131 3.88671L2.66675 3.73962ZM5.17302 12.4467L5.10218 12.0925L3.63131 12.3867L3.70215 12.7409L5.17302 12.4467ZM12.2292 11.8438H4.43758V13.3438H12.2292V11.8438ZM11.5646 12.0925L11.4938 12.4467L12.9647 12.7409L13.0355 12.3867L11.5646 12.0925ZM12.3001 11.4896H4.36675V12.9896H12.3001V11.4896ZM3.72925 9.80212H12.9376V8.30212H3.72925V9.80212ZM13.2646 3.59254L12.2021 8.90504L13.673 9.19921L14.7355 3.88671L13.2646 3.59254ZM11.6971 7.10329L14.5304 4.26995L13.4698 3.20929L10.6364 6.04263L11.6971 7.10329ZM7.80308 4.26995L10.6364 7.10329L11.6971 6.04263L8.86374 3.20929L7.80308 4.26995ZM6.03041 7.10329L8.86374 4.26995L7.80308 3.20929L4.96975 6.04263L6.03041 7.10329ZM2.13642 4.26995L4.96975 7.10329L6.03041 6.04263L3.19708 3.20929L2.13642 4.26995ZM4.46468 8.90504L3.40218 3.59254L1.93131 3.88671L2.99381 9.19921L4.46468 8.90504Z" fill="white"/>
</g>
</svg>
