<svg width="508" height="360" viewBox="0 0 508 360" fill="none" xmlns="http://www.w3.org/2000/svg">
<g clip-path="url(#clip0_185_5109)">
<path d="M379.069 216.295L388.948 181.141" stroke="white" stroke-width="2"/>
<path fill-rule="evenodd" clip-rule="evenodd" d="M440.692 325.081L464.283 315.177L470.653 325.268C482.408 324.542 487.699 325.674 486.524 328.664L449.164 341.529L440.692 325.081Z" fill="url(#paint0_linear_185_5109)"/>
<path fill-rule="evenodd" clip-rule="evenodd" d="M462.262 297.889L483.531 283.663L491.708 292.352C503.109 289.395 508.518 289.496 507.935 292.656L473.715 312.418L462.262 297.889Z" fill="url(#paint1_linear_185_5109)"/>
<path fill-rule="evenodd" clip-rule="evenodd" d="M289.351 216.971L293.023 229.215C297.616 244.532 313.06 253.872 328.747 250.821L368.182 243.15L406.325 231.302L458.596 300.395L486.428 284.1L437.788 218.225C425.905 202.132 405.833 194.313 386.206 198.131L289.351 216.971Z" fill="url(#paint2_linear_185_5109)"/>
<path fill-rule="evenodd" clip-rule="evenodd" d="M285.166 213.105L286.436 225.825C288.024 241.737 301.404 253.855 317.384 253.855H357.558L397.259 249.507L435.396 327.312L465.823 316.631L430.637 242.678C422.041 224.612 403.829 213.105 383.834 213.105H285.166Z" fill="url(#paint3_linear_185_5109)"/>
<path fill-rule="evenodd" clip-rule="evenodd" d="M342.794 153.213L360.259 170.471L407.232 189.442L404.172 208.533L358.207 191.765C351.035 189.149 344.569 184.899 339.321 179.353L331.292 170.867L342.794 153.213Z" fill="url(#paint4_linear_185_5109)"/>
<mask id="mask0_185_5109" style="mask-type:alpha" maskUnits="userSpaceOnUse" x="306" y="134" width="41" height="38">
<path d="M344.887 140.381C348.529 145.993 346.934 153.497 341.325 157.143C341.325 157.143 341.324 157.144 341.324 157.144L319.769 171.15L306.579 150.827L328.134 136.82C333.744 133.175 341.244 134.769 344.887 140.381Z" fill="white"/>
</mask>
<g mask="url(#mask0_185_5109)">
<path d="M317.136 135.984C322.334 131.771 329.959 132.571 334.167 137.771C334.168 137.772 334.168 137.772 334.168 137.773L350.337 157.756L331.511 173.014L315.343 153.03C311.134 147.829 311.937 140.197 317.136 135.984Z" fill="url(#paint5_linear_185_5109)"/>
</g>
<path fill-rule="evenodd" clip-rule="evenodd" d="M285.166 213.105H346.771L337.934 148.322C337.267 143.435 334.831 138.964 331.088 135.757C327.296 132.508 322.638 130.441 317.687 129.81L304.027 128.068C298.261 127.333 292.488 129.376 288.466 133.575C284.381 137.84 282.213 143.588 282.464 149.49L285.166 213.105Z" fill="url(#paint6_linear_185_5109)"/>
<path fill-rule="evenodd" clip-rule="evenodd" d="M304.193 145.964L305.027 152.346C305.698 157.48 305.309 162.697 303.885 167.675L286.986 226.744L285.166 213.105L282.249 148.475L304.193 145.964Z" fill="#0D152A"/>
<path fill-rule="evenodd" clip-rule="evenodd" d="M304.567 122.438C300.977 109.586 298.852 101.861 298.191 99.2632C297.199 95.367 299.734 92.7747 303.18 94.0709C306.935 89.802 321.624 82.962 327.639 85.0676C333.653 87.1733 335.697 96.5566 328.781 100.993C324.171 103.95 316.099 111.099 304.567 122.438Z" fill="url(#paint7_linear_185_5109)"/>
<path fill-rule="evenodd" clip-rule="evenodd" d="M328.311 98.1077L329.791 114.077C330.349 120.088 325.979 125.434 319.98 126.079L320.327 136.454L300.973 128.262L304.92 121.996C306.159 120.029 306.714 117.707 306.498 115.392L304.251 116.569C302.744 117.359 300.901 117.09 299.681 115.904C298.496 114.751 298.3 112.917 299.214 111.539L299.305 111.402C300.255 109.97 302.128 109.483 303.655 110.269L305.983 111.468C307.094 107.991 309.725 105.209 313.133 103.907L328.311 98.1077Z" fill="url(#paint8_linear_185_5109)"/>
<path d="M327.174 107.776C327.709 107.776 328.143 107.342 328.143 106.806C328.143 106.271 327.709 105.837 327.174 105.837C326.638 105.837 326.204 106.271 326.204 106.806C326.204 107.342 326.638 107.776 327.174 107.776Z" fill="#18233D"/>
<path d="M317.479 109.715C318.015 109.715 318.449 109.281 318.449 108.746C318.449 108.21 318.015 107.776 317.479 107.776C316.944 107.776 316.51 108.21 316.51 108.746C316.51 109.281 316.944 109.715 317.479 109.715Z" fill="#18233D"/>
<path d="M323.296 108.745C324.588 110.771 325.235 111.923 325.235 112.203C325.235 112.483 324.802 112.624 323.936 112.624" stroke="#18233D" stroke-width="2" stroke-linecap="round"/>
<path fill-rule="evenodd" clip-rule="evenodd" d="M324.308 116.502H319.418C320.171 117.906 321.131 118.608 322.298 118.608C323.466 118.608 324.136 117.906 324.308 116.502Z" fill="white"/>
<path d="M314.349 105.04C315.873 104.262 317.314 104.147 318.671 104.695" stroke="#18233D" stroke-width="3" stroke-linecap="round"/>
<path d="M325.277 103.557C326.069 102.838 327.16 102.705 328.552 103.157" stroke="#18233D" stroke-width="3" stroke-linecap="round"/>
<path d="M301.482 113.108L303.575 113.855" stroke="#18233D" stroke-width="2" stroke-linecap="round"/>
<path fill-rule="evenodd" clip-rule="evenodd" d="M320.033 126.251C316.776 126.385 314.873 125.308 314.323 123.021C315.02 127.242 316.959 129.504 320.14 129.808L320.033 126.251Z" fill="#0D152A"/>
<path fill-rule="evenodd" clip-rule="evenodd" d="M276.821 171.235L274.892 185.342C273.851 192.952 278.707 200.124 286.155 201.979L323.294 211.23H344.404C351.822 209.743 350.815 206.269 341.383 200.81C339.241 199.569 334.418 198.872 326.913 198.718L295.604 182.98L297.636 174.49L276.821 171.235Z" fill="url(#paint9_linear_185_5109)"/>
<path d="M338.704 211.23C335.2 209.123 332.564 207.785 330.797 207.218" stroke="#18233D" stroke-width="2" stroke-linecap="round"/>
<path d="M345.442 211.23C341.938 209.123 339.302 207.785 337.535 207.218" stroke="#18233D" stroke-width="2" stroke-linecap="round"/>
<mask id="mask1_185_5109" style="mask-type:alpha" maskUnits="userSpaceOnUse" x="279" y="136" width="25" height="39">
<path d="M291.125 136.711C297.816 136.71 303.241 142.137 303.242 148.832C303.242 148.833 303.242 148.834 303.242 148.835L303.238 174.521L279.003 174.524L279.006 148.838C279.007 142.141 284.433 136.711 291.125 136.711Z" fill="white"/>
</mask>
<g mask="url(#mask1_185_5109)">
<path d="M295.054 137.124C301.599 138.516 305.777 144.953 304.387 151.502C304.387 151.503 304.386 151.504 304.386 151.505L299.046 176.629L275.34 171.59L280.68 146.466C282.072 139.915 288.507 135.733 295.054 137.124Z" fill="url(#paint10_linear_185_5109)"/>
</g>
<path fill-rule="evenodd" clip-rule="evenodd" d="M287.47 38.6227L269.994 38.6227C258.758 38.6227 249.649 47.7381 249.649 58.9825C249.649 70.2269 258.758 79.3423 269.994 79.3423H275.841L285.005 86.712C285.451 87.0709 286.104 86.9998 286.462 86.5532C286.61 86.3689 286.691 86.1396 286.691 85.9033V79.3423H287.47C298.706 79.3423 307.815 70.2269 307.815 58.9825C307.815 47.7381 298.706 38.6227 287.47 38.6227Z" fill="url(#paint11_linear_185_5109)"/>
<path d="M265.288 51.5291H285.166" stroke="white" stroke-width="2"/>
<path d="M265.288 56.7164H270.472" stroke="white" stroke-width="2"/>
<path d="M265.288 61.9037H280.839" stroke="white" stroke-width="2"/>
<path d="M265.288 67.0911H291.206" stroke="white" stroke-width="2"/>
<path fill-rule="evenodd" clip-rule="evenodd" d="M353.796 211.23H321.282C319.909 211.23 318.796 212.344 318.796 213.718H353.796V211.23Z" fill="url(#paint12_linear_185_5109)"/>
<path fill-rule="evenodd" clip-rule="evenodd" d="M354.372 175.331L408.121 175.331C408.688 175.331 409.216 175.616 409.529 176.089C409.848 176.573 409.956 177.167 409.827 177.732L401.978 212.202L344.466 213.718H343.154L349.79 179.12C350.212 176.921 352.134 175.331 354.372 175.331V175.331Z" fill="url(#paint13_linear_185_5109)"/>
<path fill-rule="evenodd" clip-rule="evenodd" d="M355.323 176.59H407.524C408.669 176.59 409.597 177.519 409.597 178.665C409.597 178.795 409.585 178.925 409.561 179.053L403.934 208.656C403.375 211.593 400.81 213.718 397.823 213.718H344.404L350.74 180.386C351.159 178.184 353.083 176.59 355.323 176.59Z" fill="#0ACC94"/>
<path d="M377.217 197.986C378.77 197.986 380.029 196.718 380.029 195.154C380.029 193.59 378.77 192.322 377.217 192.322C375.663 192.322 374.404 193.59 374.404 195.154C374.404 196.718 375.663 197.986 377.217 197.986Z" fill="white"/>
<path fill-rule="evenodd" clip-rule="evenodd" d="M275.955 253.141H391.885V357.406H275.955V253.141Z" fill="url(#paint14_linear_185_5109)"/>
<path fill-rule="evenodd" clip-rule="evenodd" d="M218.232 253.141H334.163V357.406H218.232V253.141Z" fill="url(#paint15_linear_185_5109)"/>
<path fill-rule="evenodd" clip-rule="evenodd" d="M199.848 288.359L183.651 269.459L179.96 251.361C178.067 242.076 169.011 236.083 159.733 237.975C158.339 238.259 156.986 238.716 155.705 239.335L162.62 269.868C164.326 277.405 167.971 284.365 173.193 290.059L181.183 298.771L199.848 288.359Z" fill="url(#paint16_linear_185_5109)"/>
<mask id="mask2_185_5109" style="mask-type:alpha" maskUnits="userSpaceOnUse" x="176" y="237" width="42" height="38">
<path d="M178.446 243.516C174.749 249.216 176.369 256.837 182.065 260.54L203.883 274.725L217.272 254.084L195.454 239.9C189.76 236.199 182.146 237.816 178.449 243.512C178.448 243.513 178.447 243.514 178.446 243.516Z" fill="white"/>
</mask>
<g mask="url(#mask2_185_5109)">
<path d="M206.57 239.067C201.29 234.79 193.546 235.603 189.271 240.884L172.899 261.111L192.018 276.6L208.39 256.373C212.663 251.094 211.85 243.347 206.573 239.069C206.572 239.069 206.571 239.068 206.57 239.067Z" fill="#0ACC94"/>
</g>
<path fill-rule="evenodd" clip-rule="evenodd" d="M238.931 317.281H176.506L185.462 251.488C186.137 246.532 188.605 241.995 192.398 238.738C196.24 235.439 200.963 233.34 205.984 232.698L219.809 230.932C225.657 230.184 231.512 232.259 235.587 236.523C239.727 240.854 241.923 246.686 241.67 252.674L238.931 317.281Z" fill="#0ACC94"/>
<path d="M204.74 190.007C198.2 193.342 190.14 190.63 186.739 183.95C183.337 177.27 185.882 169.151 192.423 165.816C198.963 162.481 207.023 165.193 210.424 171.873C213.826 178.553 211.281 186.672 204.74 190.007Z" fill="url(#paint17_linear_185_5109)"/>
<path fill-rule="evenodd" clip-rule="evenodd" d="M223.526 203.665L229.834 199.075C231.61 197.782 232.147 195.368 231.085 193.444C230.03 191.529 227.699 190.723 225.687 191.575L223.307 192.582C215.738 186.532 209.039 185.238 203.211 188.701C197.383 192.164 196.244 200.802 199.794 214.615L223.526 203.665Z" fill="url(#paint18_linear_185_5109)"/>
<path fill-rule="evenodd" clip-rule="evenodd" d="M226.856 197.46L228.375 213.926C228.942 220.074 224.475 225.54 218.341 226.203L219.212 239.574L204.881 235.461L204.033 216.751L202.522 217.112C200.753 217.534 198.891 217.019 197.59 215.747C196.378 214.561 196.177 212.68 197.111 211.264L197.206 211.121C198.176 209.652 200.097 209.151 201.659 209.96L204.033 211.189C212.155 209.463 219.551 205.282 225.221 199.211L226.856 197.46Z" fill="url(#paint19_linear_185_5109)"/>
<path d="M202.385 213.975L198.789 213.018" stroke="#18233D" stroke-width="2.052" stroke-linecap="round"/>
<path fill-rule="evenodd" clip-rule="evenodd" d="M218.341 226.203C214.793 226.183 211.966 225.16 209.862 223.132C211.848 228.952 214.793 232.021 218.697 232.338L218.341 226.203Z" fill="#0D152A"/>
<path d="M224.799 210.355C225.387 210.355 225.863 209.878 225.863 209.29C225.863 208.702 225.387 208.225 224.799 208.225C224.212 208.225 223.736 208.702 223.736 209.29C223.736 209.878 224.212 210.355 224.799 210.355Z" fill="#18233D"/>
<path d="M215.232 210.86C215.819 210.86 216.295 210.383 216.295 209.795C216.295 209.207 215.819 208.73 215.232 208.73C214.645 208.73 214.169 209.207 214.169 209.795C214.169 210.383 214.645 210.86 215.232 210.86Z" fill="#18233D"/>
<path d="M221.891 210.355C223.308 212.58 224.017 213.846 224.017 214.154C224.017 214.461 223.542 214.615 222.592 214.615" stroke="#18233D" stroke-width="2.052" stroke-linecap="round"/>
<path fill-rule="evenodd" clip-rule="evenodd" d="M221.891 217.81H217.639C218.293 219.23 219.128 219.94 220.144 219.94C221.159 219.94 221.742 219.23 221.891 217.81Z" fill="white"/>
<path d="M213.601 206.955C215.064 206.195 216.446 206.083 217.748 206.618" stroke="#18233D" stroke-width="3.078" stroke-linecap="round"/>
<path d="M223.526 205.787C224.285 205.085 225.333 204.955 226.668 205.397" stroke="#18233D" stroke-width="3.078" stroke-linecap="round"/>
<path fill-rule="evenodd" clip-rule="evenodd" d="M219.65 249.103L218.564 257.441C218.042 261.44 218.234 265.499 219.131 269.43L235.389 340.739C237.75 334.924 238.931 327.104 238.931 317.281C238.931 302.545 237.82 251.696 237.82 251.696C237.82 251.696 231.764 250.831 219.65 249.103Z" fill="#0D152A"/>
<path fill-rule="evenodd" clip-rule="evenodd" d="M228.912 240.127C222.277 241.54 218.042 248.066 219.45 254.706L224.866 280.241L248.888 275.124L243.472 249.589C242.065 242.954 235.549 238.717 228.919 240.125C228.917 240.126 228.914 240.126 228.912 240.127Z" fill="url(#paint20_linear_185_5109)"/>
<mask id="mask3_185_5109" style="mask-type:alpha" maskUnits="userSpaceOnUse" x="220" y="239" width="26" height="40">
<path d="M232.9 239.709C226.117 239.711 220.619 245.213 220.617 252.001L220.609 278.105L245.169 278.098L245.177 251.994C245.179 245.211 239.686 239.711 232.908 239.709C232.905 239.709 232.903 239.709 232.9 239.709Z" fill="white"/>
</mask>
<g mask="url(#mask3_185_5109)">
<path d="M228.912 240.127C222.277 241.54 218.042 248.066 219.45 254.706L224.866 280.241L248.888 275.124L243.472 249.589C242.065 242.954 235.549 238.717 228.919 240.125C228.917 240.126 228.914 240.126 228.912 240.127Z" fill="#0ACC94"/>
</g>
<path fill-rule="evenodd" clip-rule="evenodd" d="M126.687 264.553L86.9446 335.312C85.6834 337.558 85.098 340.121 85.259 342.692L83.2555 349.167H62.9326L71.2344 338.577C71.7605 337.906 72.1922 337.165 72.5174 336.377L102.152 264.553H126.687Z" fill="url(#paint21_linear_185_5109)"/>
<path fill-rule="evenodd" clip-rule="evenodd" d="M82.4646 356.908C82.561 354.951 82.8448 353.221 83.3162 351.716C83.69 350.523 84.4296 348.681 85.5352 346.188H85.5352C86.1295 344.848 86.1296 343.32 85.5354 341.98L85.3614 341.587L82.6151 345.106C81.6328 346.365 80.1258 347.1 78.5298 347.1H68.4545C67.437 347.1 66.612 346.275 66.612 345.257C66.612 344.837 66.7553 344.429 67.018 344.102L54.131 354.607C53.6871 354.969 53.6204 355.622 53.982 356.067C54.1684 356.295 54.4435 356.434 54.7383 356.448C56.2827 356.519 58.3612 356.554 60.9738 356.554C65.5678 356.554 71.522 355.24 78.8363 352.613L79.858 356.908H82.4646Z" fill="url(#paint22_linear_185_5109)"/>
<path fill-rule="evenodd" clip-rule="evenodd" d="M211.464 323.094L210.673 331.085C209.289 345.085 197.261 355.591 183.212 355.073C167.603 354.497 153.322 346.126 145.187 332.783L117.632 287.59L104.016 309.454L77.9325 306.824L104.42 257.458C111.124 244.964 126.679 240.274 139.165 246.982C141.196 248.074 143.07 249.434 144.738 251.026L208.332 311.736L211.464 323.094Z" fill="#0D152A"/>
<path fill-rule="evenodd" clip-rule="evenodd" d="M158.307 267.147L118.565 337.906C117.303 340.152 116.718 342.714 116.879 345.285L114.876 351.761H94.5527L102.855 341.17C103.381 340.499 103.812 339.759 104.138 338.971L133.772 267.147H158.307Z" fill="url(#paint23_linear_185_5109)"/>
<path fill-rule="evenodd" clip-rule="evenodd" d="M114.085 359.501C114.181 357.545 114.465 355.815 114.936 354.31C115.31 353.117 116.05 351.274 117.155 348.782H117.155C117.75 347.442 117.75 345.913 117.156 344.573L116.982 344.181L114.235 347.7C113.253 348.958 111.746 349.694 110.15 349.694H100.075C99.0571 349.694 98.2322 348.868 98.2322 347.85C98.2322 347.43 98.3754 347.023 98.6381 346.696L85.7511 357.201C85.3072 357.562 85.2405 358.216 85.6021 358.66C85.7885 358.889 86.0636 359.028 86.3584 359.041C87.9029 359.112 89.9813 359.148 92.5939 359.148C97.188 359.148 103.142 357.834 110.456 355.207L111.478 359.501H114.085Z" fill="url(#paint24_linear_185_5109)"/>
<path fill-rule="evenodd" clip-rule="evenodd" d="M238.939 325.99L238.166 333.753C236.771 347.755 224.74 358.26 210.688 357.745C195.256 357.18 181.34 348.297 174.322 334.532L150.67 288.142L133.938 314.711L110.592 311.172L132.78 263.595C138.773 250.745 154.041 245.189 166.883 251.186C169.382 252.353 171.676 253.916 173.678 255.813L235.808 314.711L238.939 325.99Z" fill="url(#paint25_linear_185_5109)"/>
<path fill-rule="evenodd" clip-rule="evenodd" d="M162.501 249.244H197.968C199.426 249.244 200.608 250.427 200.608 251.886H162.501V249.244Z" fill="url(#paint26_linear_185_5109)"/>
<path fill-rule="evenodd" clip-rule="evenodd" d="M162.618 211.124L103.335 211.124C102.727 211.124 102.16 211.425 101.819 211.928C101.472 212.441 101.355 213.076 101.496 213.679L110.04 250.277L172.658 251.886H174.087L166.737 214.514C166.35 212.544 164.624 211.124 162.618 211.124V211.124Z" fill="url(#paint27_linear_185_5109)"/>
<path fill-rule="evenodd" clip-rule="evenodd" d="M161.584 212.46H103.54C102.51 212.46 101.674 213.297 101.674 214.328C101.674 214.448 101.686 214.568 101.709 214.685L108.076 247.357C108.589 249.988 110.892 251.886 113.571 251.886H172.727L165.705 215.858C165.32 213.885 163.593 212.46 161.584 212.46Z" fill="url(#paint28_linear_185_5109)"/>
<path d="M137 235.181C135.309 235.181 133.938 233.834 133.938 232.173C133.938 230.513 135.309 229.166 137 229.166C138.692 229.166 140.062 230.513 140.062 232.173C140.062 233.834 138.692 235.181 137 235.181Z" fill="white"/>
<path fill-rule="evenodd" clip-rule="evenodd" d="M180.392 249.244L184.404 245.241C189.195 240.46 196.952 240.471 201.729 245.265C202.169 245.706 202.574 246.179 202.941 246.682L226.295 287.057L225.098 280.241L244.168 276.087L246.856 295.049C247.991 303.057 242.528 310.507 234.553 311.825C226.106 313.22 217.785 308.726 214.314 300.895L191.426 249.244H180.392Z" fill="url(#paint29_linear_185_5109)"/>
<path d="M0.150391 356.369L142.551 356.548" stroke="#18233D" stroke-width="2"/>
<path fill-rule="evenodd" clip-rule="evenodd" d="M413.675 322.662L417.781 321.587C418.742 321.336 419.352 320.394 419.19 319.414C419.015 318.361 419.473 317.303 420.36 316.71L420.809 316.411C421.868 315.704 422.165 314.279 421.477 313.207C421.317 312.958 421.157 312.709 420.997 312.46C421.168 312.189 421.338 311.918 421.508 311.646C422.149 310.627 421.842 309.28 420.823 308.639C420.764 308.602 420.703 308.568 420.641 308.537L420.162 308.296C419.225 307.825 418.084 308.16 417.55 309.063L417.379 309.353C416.912 310.142 416.003 310.556 415.102 310.39C414.379 310.256 413.684 310.734 413.551 311.458C413.54 311.517 413.533 311.577 413.53 311.637L413.444 313.457C413.392 314.563 412.454 315.418 411.349 315.366C411.325 315.364 411.301 315.363 411.277 315.361C410.69 315.312 410.175 315.749 410.126 316.336C410.107 316.558 410.159 316.781 410.273 316.972L413.675 322.662Z" fill="#0ACC94"/>
<path d="M415.202 356.176L412.799 323.921L418.203 313.516" stroke="#18233D" stroke-width="2" stroke-linecap="round"/>
<path fill-rule="evenodd" clip-rule="evenodd" d="M414.983 333.782V330.24C414.983 329.278 415.714 328.475 416.67 328.386C417.704 328.289 418.592 327.613 418.962 326.643L419.082 326.327C419.492 325.252 420.654 324.668 421.761 324.981C422.084 325.073 422.406 325.164 422.729 325.256C422.948 325.042 423.168 324.829 423.387 324.615C424.253 323.773 425.636 323.788 426.484 324.649L426.806 324.976C427.452 325.633 427.444 326.69 426.787 327.337C426.774 327.35 426.761 327.362 426.748 327.375L426.475 327.626C425.888 328.168 425.737 329.035 426.107 329.743C426.39 330.287 426.18 330.958 425.637 331.242C425.573 331.275 425.505 331.303 425.435 331.323L423.482 331.896C422.595 332.156 422.087 333.086 422.347 333.973C422.361 334.021 422.377 334.068 422.395 334.114C422.584 334.598 422.346 335.144 421.862 335.334C421.68 335.406 421.479 335.418 421.289 335.371L414.983 333.782Z" fill="#0ACC94"/>
<path d="M413.593 334.637L422.813 327.671" stroke="#18233D" stroke-width="2" stroke-linecap="round"/>
<path fill-rule="evenodd" clip-rule="evenodd" d="M411.467 325.226V321.684C411.467 320.723 410.736 319.919 409.78 319.83C408.747 319.733 407.858 319.057 407.489 318.087L407.368 317.771C406.959 316.696 405.796 316.112 404.689 316.426C404.367 316.517 404.044 316.609 403.721 316.7C403.502 316.487 403.282 316.273 403.063 316.059C402.197 315.217 400.814 315.232 399.966 316.093L399.644 316.421C398.998 317.077 399.006 318.134 399.663 318.781C399.676 318.794 399.689 318.806 399.702 318.819L399.976 319.071C400.562 319.612 400.713 320.48 400.344 321.187C400.06 321.731 400.27 322.402 400.813 322.686C400.878 322.72 400.945 322.747 401.015 322.767L402.968 323.34C403.855 323.6 404.363 324.53 404.103 325.418C404.09 325.465 404.074 325.512 404.056 325.558C403.866 326.042 404.104 326.589 404.588 326.778C404.771 326.85 404.971 326.863 405.161 326.815L411.467 325.226Z" fill="#0ACC94"/>
<path d="M412.857 326.081L403.637 319.116" stroke="#18233D" stroke-width="2" stroke-linecap="round"/>
<path fill-rule="evenodd" clip-rule="evenodd" d="M416.029 350.803V346.375C416.029 345.174 416.942 344.17 418.138 344.058C419.429 343.937 420.54 343.092 421.002 341.879L421.152 341.485C421.664 340.14 423.118 339.41 424.501 339.802C424.904 339.917 425.308 340.031 425.711 340.146C425.985 339.879 426.26 339.612 426.534 339.345C427.616 338.292 429.345 338.31 430.404 339.387L430.807 339.796C431.615 340.617 431.605 341.938 430.784 342.747C430.768 342.763 430.751 342.778 430.734 342.794L430.393 343.109C429.66 343.785 429.471 344.87 429.933 345.755C430.288 346.434 430.025 347.273 429.346 347.628C429.266 347.67 429.181 347.704 429.094 347.729L426.652 348.445C425.544 348.77 424.908 349.933 425.233 351.042C425.251 351.102 425.271 351.16 425.293 351.218C425.53 351.823 425.232 352.506 424.627 352.743C424.399 352.833 424.149 352.849 423.911 352.789L416.029 350.803Z" fill="#0ACC94"/>
<path fill-rule="evenodd" clip-rule="evenodd" d="M412.119 344.44V340.013C412.119 338.811 411.205 337.807 410.01 337.695C408.718 337.574 407.608 336.729 407.146 335.517L406.995 335.122C406.483 333.778 405.03 333.048 403.646 333.44C403.243 333.554 402.84 333.669 402.436 333.783C402.162 333.516 401.888 333.249 401.613 332.982C400.531 331.929 398.802 331.948 397.743 333.025L397.34 333.434C396.533 334.255 396.543 335.576 397.363 336.384C397.38 336.4 397.396 336.416 397.413 336.432L397.754 336.746C398.488 337.423 398.676 338.508 398.214 339.392C397.86 340.072 398.122 340.91 398.801 341.265C398.882 341.307 398.966 341.342 399.054 341.367L401.495 342.083C402.604 342.408 403.239 343.571 402.914 344.68C402.897 344.739 402.877 344.798 402.854 344.856C402.617 345.461 402.915 346.144 403.52 346.381C403.748 346.471 403.999 346.486 404.236 346.427L412.119 344.44Z" fill="#0ACC94"/>
<path d="M414.386 346.452L400.064 335.817" stroke="#18233D" stroke-width="2" stroke-linecap="round"/>
<path d="M414.984 351.235L428.016 341.863" stroke="#18233D" stroke-width="2" stroke-linecap="round"/>
<path d="M216.937 108.934H96.1576C83.9904 108.934 74.127 118.804 74.127 130.98C74.127 143.156 83.9904 153.026 96.1576 153.026H216.937C229.104 153.026 238.968 143.156 238.968 130.98C238.968 118.804 229.104 108.934 216.937 108.934Z" stroke="#18233D" stroke-width="2" stroke-linecap="round"/>
<mask id="mask4_185_5109" style="mask-type:alpha" maskUnits="userSpaceOnUse" x="80" y="103" width="43" height="43">
<path d="M101.859 145.245C113.454 145.245 122.853 135.839 122.853 124.236C122.853 112.634 113.454 103.228 101.859 103.228C90.2645 103.228 80.8652 112.634 80.8652 124.236C80.8652 135.839 90.2645 145.245 101.859 145.245Z" fill="white"/>
</mask>
<g mask="url(#mask4_185_5109)">
<path d="M101.859 145.245C113.454 145.245 122.853 135.839 122.853 124.236C122.853 112.634 113.454 103.228 101.859 103.228C90.2645 103.228 80.8652 112.634 80.8652 124.236C80.8652 135.839 90.2645 145.245 101.859 145.245Z" fill="url(#paint30_linear_185_5109)"/>
<path fill-rule="evenodd" clip-rule="evenodd" d="M92.0918 126.353L91.6635 126.514C88.2739 127.787 85.8168 130.768 85.2137 134.34L83.0442 147.19H92.0918V126.353Z" fill="white"/>
<path fill-rule="evenodd" clip-rule="evenodd" d="M91.1703 136.511L88.0681 147.19H91.5039L91.1703 136.511Z" fill="#0D152A"/>
<path fill-rule="evenodd" clip-rule="evenodd" d="M104.393 123.909C110.038 125.285 114.745 129.168 117.174 134.45L119.098 138.634L111.128 147.19H90.5607L91.5603 126.518L99.9483 123.909H104.393Z" fill="white"/>
<path fill-rule="evenodd" clip-rule="evenodd" d="M96.2403 116.004C95.4261 112.801 96.0845 110.976 98.2153 110.529C101.412 109.858 103.96 109.792 104.855 112.146C105.994 111.915 106.081 114.568 105.117 120.107L96.2403 116.004Z" fill="url(#paint31_linear_185_5109)"/>
<path fill-rule="evenodd" clip-rule="evenodd" d="M95.9842 115.238L96.4767 120.917C96.575 122.051 97.5232 122.921 98.6601 122.921V123.86L98.6575 123.904C98.5892 125.048 99.4604 126.031 100.604 126.099C100.949 126.12 101.294 126.054 101.607 125.907L105.324 124.164L105.109 119.918L103.968 117.805L104.873 117.565C105.351 117.438 105.684 117.005 105.684 116.51C105.684 116.002 105.379 115.543 104.91 115.345L104.826 115.31C104.341 115.106 103.78 115.307 103.535 115.773L103.033 116.728C103.162 114.614 102.784 113.427 101.899 113.165C101.014 112.903 99.7857 113.068 98.2152 113.66C97.8097 112.911 97.2881 112.746 96.6505 113.165C96.0128 113.584 95.7907 114.275 95.9842 115.238Z" fill="url(#paint32_linear_185_5109)"/>
<path fill-rule="evenodd" clip-rule="evenodd" d="M98.6602 122.921C100.235 122.852 101.534 122.566 102.557 122.063L98.6602 124.58V122.921Z" fill="#0D152A"/>
<path d="M97.0835 118.024C96.7994 118.059 96.5407 117.857 96.5058 117.573C96.471 117.288 96.673 117.03 96.9572 116.995C97.2413 116.96 97.5 117.162 97.5349 117.446C97.5697 117.731 97.3677 117.99 97.0835 118.024Z" fill="#18233D"/>
<path d="M100.103 118.061C99.8189 118.096 99.5603 117.894 99.5254 117.61C99.4905 117.325 99.6926 117.066 99.9767 117.031C100.261 116.997 100.519 117.199 100.554 117.483C100.589 117.767 100.387 118.026 100.103 118.061Z" fill="#18233D"/>
<path d="M97.7988 118.195C97.4996 118.82 97.3549 119.173 97.3647 119.253C97.3745 119.333 97.5034 119.358 97.7514 119.328" stroke="#18233D" stroke-width="0.7" stroke-linecap="round"/>
<path fill-rule="evenodd" clip-rule="evenodd" d="M97.6906 120.13L99.0908 119.957C98.9245 120.386 98.6741 120.62 98.3397 120.661C98.0054 120.703 97.789 120.525 97.6906 120.13Z" fill="white"/>
<path d="M100.456 115.805C99.9918 115.636 99.5752 115.654 99.2059 115.858" stroke="#18233D" stroke-width="1.08" stroke-linecap="round"/>
<path d="M97.274 115.766C97.0221 115.588 96.7049 115.589 96.3221 115.767" stroke="#18233D" stroke-width="1.08" stroke-linecap="round"/>
<path d="M100.834 116.99L102.964 116.682" stroke="#18233D" stroke-width="0.7" stroke-linecap="round"/>
<path d="M104.854 116.373L103.931 116.99" stroke="#18233D" stroke-width="0.7" stroke-linecap="round"/>
<path d="M96.4764 119.284C95.752 119.284 95.1647 118.695 95.1647 117.968C95.1647 117.241 95.752 116.652 96.4764 116.652C97.2008 116.652 97.7881 117.241 97.7881 117.968C97.7881 118.695 97.2008 119.284 96.4764 119.284Z" stroke="#18233D" stroke-width="0.7" stroke-linecap="round"/>
<path d="M99.9491 119.284C99.2247 119.284 98.6374 118.695 98.6374 117.968C98.6374 117.241 99.2247 116.652 99.9491 116.652C100.673 116.652 101.261 117.241 101.261 117.968C101.261 118.695 100.673 119.284 99.9491 119.284Z" stroke="#18233D" stroke-width="0.7" stroke-linecap="round"/>
<path d="M98.8232 117.235C98.3127 116.89 97.9073 116.89 97.6068 117.235" stroke="#18233D" stroke-width="0.7" stroke-linecap="round"/>
</g>
<path d="M137.001 120.732H200.745" stroke="#18233D" stroke-width="2" stroke-linecap="round"/>
<path d="M137.001 131.107H180.01" stroke="#18233D" stroke-width="2" stroke-linecap="round"/>
<path d="M137.001 141.481H190.378" stroke="#18233D" stroke-width="2" stroke-linecap="round"/>
</g>
<defs>
<linearGradient id="paint0_linear_185_5109" x1="461.96" y1="323.312" x2="462.531" y2="332.743" gradientUnits="userSpaceOnUse">
<stop stop-color="#FF555D"/>
<stop offset="1" stop-color="#B45828"/>
</linearGradient>
<linearGradient id="paint1_linear_185_5109" x1="482.802" y1="292.092" x2="485.163" y2="301.24" gradientUnits="userSpaceOnUse">
<stop stop-color="#FF555D"/>
<stop offset="1" stop-color="#B45828"/>
</linearGradient>
<linearGradient id="paint2_linear_185_5109" x1="378.019" y1="199.724" x2="399.825" y2="311.827" gradientUnits="userSpaceOnUse">
<stop stop-color="#354970"/>
<stop offset="1" stop-color="#18233D"/>
</linearGradient>
<linearGradient id="paint3_linear_185_5109" x1="375.494" y1="213.105" x2="375.494" y2="327.312" gradientUnits="userSpaceOnUse">
<stop stop-color="#354970"/>
<stop offset="1" stop-color="#18233D"/>
</linearGradient>
<linearGradient id="paint4_linear_185_5109" x1="340.894" y1="155.325" x2="402.319" y2="210.593" gradientUnits="userSpaceOnUse">
<stop stop-color="#EBA3A3"/>
<stop offset="1" stop-color="#FF8A77"/>
</linearGradient>
<linearGradient id="paint5_linear_185_5109" x1="317.135" y1="135.985" x2="340.946" y2="165.368" gradientUnits="userSpaceOnUse">
<stop stop-color="#FDD577"/>
<stop offset="1" stop-color="#F9AA42"/>
</linearGradient>
<linearGradient id="paint6_linear_185_5109" x1="314.608" y1="127.921" x2="314.608" y2="213.105" gradientUnits="userSpaceOnUse">
<stop stop-color="#FDD577"/>
<stop offset="1" stop-color="#F9AA42"/>
</linearGradient>
<linearGradient id="paint7_linear_185_5109" x1="315.552" y1="84.6746" x2="315.552" y2="122.438" gradientUnits="userSpaceOnUse">
<stop stop-color="#354970"/>
<stop offset="1" stop-color="#18233D"/>
</linearGradient>
<linearGradient id="paint8_linear_185_5109" x1="314.24" y1="98.1077" x2="314.24" y2="136.454" gradientUnits="userSpaceOnUse">
<stop stop-color="#EBA3A3"/>
<stop offset="1" stop-color="#FF8A77"/>
</linearGradient>
<linearGradient id="paint9_linear_185_5109" x1="312.027" y1="171.235" x2="312.027" y2="211.23" gradientUnits="userSpaceOnUse">
<stop stop-color="#EBA3A3"/>
<stop offset="1" stop-color="#FF8A77"/>
</linearGradient>
<linearGradient id="paint10_linear_185_5109" x1="295.051" y1="137.124" x2="287.184" y2="174.109" gradientUnits="userSpaceOnUse">
<stop stop-color="#FDD577"/>
<stop offset="1" stop-color="#F9AA42"/>
</linearGradient>
<linearGradient id="paint11_linear_185_5109" x1="278.732" y1="38.6227" x2="278.732" y2="86.9408" gradientUnits="userSpaceOnUse">
<stop stop-color="#FDD577"/>
<stop offset="1" stop-color="#F9AA42"/>
</linearGradient>
<linearGradient id="paint12_linear_185_5109" x1="336.296" y1="211.23" x2="336.296" y2="213.718" gradientUnits="userSpaceOnUse">
<stop stop-color="#354970"/>
<stop offset="1" stop-color="#18233D"/>
</linearGradient>
<linearGradient id="paint13_linear_185_5109" x1="376.517" y1="175.331" x2="376.517" y2="213.718" gradientUnits="userSpaceOnUse">
<stop stop-color="#354970"/>
<stop offset="1" stop-color="#18233D"/>
</linearGradient>
<linearGradient id="paint14_linear_185_5109" x1="333.92" y1="253.141" x2="333.92" y2="357.406" gradientUnits="userSpaceOnUse">
<stop stop-color="#437B9D"/>
<stop offset="1" stop-color="#5FB0FF"/>
</linearGradient>
<linearGradient id="paint15_linear_185_5109" x1="276.198" y1="253.141" x2="276.198" y2="357.406" gradientUnits="userSpaceOnUse">
<stop stop-color="#98D8FF"/>
<stop offset="1" stop-color="#5FB0FF"/>
</linearGradient>
<linearGradient id="paint16_linear_185_5109" x1="194.609" y1="292.455" x2="154.075" y2="240.609" gradientUnits="userSpaceOnUse">
<stop stop-color="#EBA3A3"/>
<stop offset="1" stop-color="#FF8A77"/>
</linearGradient>
<linearGradient id="paint17_linear_185_5109" x1="192.423" y1="165.816" x2="204.754" y2="190" gradientUnits="userSpaceOnUse">
<stop stop-color="#354970"/>
<stop offset="1" stop-color="#18233D"/>
</linearGradient>
<linearGradient id="paint18_linear_185_5109" x1="214.703" y1="186.81" x2="214.703" y2="214.615" gradientUnits="userSpaceOnUse">
<stop stop-color="#354970"/>
<stop offset="1" stop-color="#18233D"/>
</linearGradient>
<linearGradient id="paint19_linear_185_5109" x1="212.475" y1="197.46" x2="212.475" y2="239.574" gradientUnits="userSpaceOnUse">
<stop stop-color="#EBA3A3"/>
<stop offset="1" stop-color="#FF8A77"/>
</linearGradient>
<linearGradient id="paint20_linear_185_5109" x1="228.904" y1="240.128" x2="236.893" y2="277.683" gradientUnits="userSpaceOnUse">
<stop stop-color="#98D8FF"/>
<stop offset="1" stop-color="#5FB0FF"/>
</linearGradient>
<linearGradient id="paint21_linear_185_5109" x1="94.8096" y1="264.553" x2="94.8096" y2="349.167" gradientUnits="userSpaceOnUse">
<stop stop-color="#FFBA5F"/>
<stop offset="1" stop-color="#FF9C77"/>
</linearGradient>
<linearGradient id="paint22_linear_185_5109" x1="69.865" y1="341.587" x2="69.865" y2="356.908" gradientUnits="userSpaceOnUse">
<stop stop-color="#354970"/>
<stop offset="1" stop-color="#18233D"/>
</linearGradient>
<linearGradient id="paint23_linear_185_5109" x1="126.43" y1="267.147" x2="126.43" y2="351.761" gradientUnits="userSpaceOnUse">
<stop stop-color="#FFBA5F"/>
<stop offset="1" stop-color="#FF9C77"/>
</linearGradient>
<linearGradient id="paint24_linear_185_5109" x1="101.485" y1="344.181" x2="101.485" y2="359.501" gradientUnits="userSpaceOnUse">
<stop stop-color="#354970"/>
<stop offset="1" stop-color="#18233D"/>
</linearGradient>
<linearGradient id="paint25_linear_185_5109" x1="174.766" y1="248.771" x2="174.766" y2="357.763" gradientUnits="userSpaceOnUse">
<stop stop-color="#354970"/>
<stop offset="1" stop-color="#18233D"/>
</linearGradient>
<linearGradient id="paint26_linear_185_5109" x1="181.555" y1="249.244" x2="181.555" y2="251.886" gradientUnits="userSpaceOnUse">
<stop stop-color="#354970"/>
<stop offset="1" stop-color="#18233D"/>
</linearGradient>
<linearGradient id="paint27_linear_185_5109" x1="137.762" y1="211.124" x2="137.762" y2="251.886" gradientUnits="userSpaceOnUse">
<stop stop-color="#354970"/>
<stop offset="1" stop-color="#18233D"/>
</linearGradient>
<linearGradient id="paint28_linear_185_5109" x1="137.2" y1="212.46" x2="137.2" y2="251.886" gradientUnits="userSpaceOnUse">
<stop stop-color="#FDD577"/>
<stop offset="1" stop-color="#F9AA42"/>
</linearGradient>
<linearGradient id="paint29_linear_185_5109" x1="213.698" y1="241.662" x2="213.698" y2="312.077" gradientUnits="userSpaceOnUse">
<stop stop-color="#EBA3A3"/>
<stop offset="1" stop-color="#FF8A77"/>
</linearGradient>
<linearGradient id="paint30_linear_185_5109" x1="101.859" y1="103.228" x2="101.859" y2="145.245" gradientUnits="userSpaceOnUse">
<stop stop-color="#98D8FF"/>
<stop offset="1" stop-color="#5FB0FF"/>
</linearGradient>
<linearGradient id="paint31_linear_185_5109" x1="100.841" y1="110.124" x2="100.841" y2="120.107" gradientUnits="userSpaceOnUse">
<stop stop-color="#354970"/>
<stop offset="1" stop-color="#18233D"/>
</linearGradient>
<linearGradient id="paint32_linear_185_5109" x1="100.8" y1="112.939" x2="100.8" y2="126.103" gradientUnits="userSpaceOnUse">
<stop stop-color="#FFBA5F"/>
<stop offset="1" stop-color="#FF9C77"/>
</linearGradient>
<clipPath id="clip0_185_5109">
<rect width="508" height="360" fill="white"/>
</clipPath>
</defs>
</svg>
