<svg width="18" height="18" viewBox="0 0 18 18" fill="none" xmlns="http://www.w3.org/2000/svg">
<path d="M12.75 2.24974C12.947 2.05276 13.1808 1.8965 13.4382 1.78989C13.6956 1.68329 13.9714 1.62842 14.25 1.62842C14.5286 1.62842 14.8044 1.68329 15.0618 1.78989C15.3192 1.8965 15.553 2.05276 15.75 2.24974C15.947 2.44672 16.1032 2.68057 16.2098 2.93794C16.3165 3.19531 16.3713 3.47116 16.3713 3.74974C16.3713 4.02831 16.3165 4.30416 16.2098 4.56153C16.1032 4.8189 15.947 5.05276 15.75 5.24974L5.625 15.3747L1.5 16.4997L2.625 12.3747L12.75 2.24974Z" stroke="#E5E7EB" stroke-width="2" stroke-linecap="round" stroke-linejoin="round"/>
</svg>
