<svg width="20" height="20" viewBox="0 0 20 20" fill="none" xmlns="http://www.w3.org/2000/svg">
<path d="M2.5 15V10C2.5 8.01088 3.29018 6.10322 4.6967 4.6967C6.10322 3.29018 8.01088 2.5 10 2.5C11.9891 2.5 13.8968 3.29018 15.3033 4.6967C16.7098 6.10322 17.5 8.01088 17.5 10V15" stroke="#6B7280" stroke-width="2" stroke-linecap="round" stroke-linejoin="round"/>
<path d="M17.5 15.8333C17.5 16.2753 17.3244 16.6992 17.0118 17.0118C16.6993 17.3244 16.2754 17.5 15.8333 17.5H15C14.558 17.5 14.134 17.3244 13.8215 17.0118C13.5089 16.6992 13.3333 16.2753 13.3333 15.8333V13.3333C13.3333 12.8913 13.5089 12.4673 13.8215 12.1548C14.134 11.8422 14.558 11.6666 15 11.6666H17.5V15.8333ZM2.5 15.8333C2.5 16.2753 2.67559 16.6992 2.98816 17.0118C3.30072 17.3244 3.72464 17.5 4.16667 17.5H5C5.44203 17.5 5.86595 17.3244 6.17851 17.0118C6.49107 16.6992 6.66667 16.2753 6.66667 15.8333V13.3333C6.66667 12.8913 6.49107 12.4673 6.17851 12.1548C5.86595 11.8422 5.44203 11.6666 5 11.6666H2.5V15.8333Z" stroke="#6B7280" stroke-width="2" stroke-linecap="round" stroke-linejoin="round"/>
</svg>
