<svg width="23" height="22" viewBox="0 0 23 22" fill="none" xmlns="http://www.w3.org/2000/svg">
<path d="M14.8936 6.53194V4.79787C14.8936 2.92661 13.3712 1.40426 11.5 1.40426C9.62872 1.40426 8.10636 2.92661 8.10636 4.79787V6.53194C8.09869 6.53517 8.09096 6.53812 8.08329 6.54135C7.59896 6.74618 7.13794 6.99244 6.70211 7.27737V4.79787C6.70211 2.1523 8.85441 0 11.5 0C14.1455 0 16.2979 2.1523 16.2979 4.79787V7.27732C15.862 6.99244 15.401 6.74618 14.9167 6.5413C14.909 6.53812 14.9013 6.53517 14.8936 6.53194Z" fill="white"/>
<path d="M11.4997 7.25537C15.5714 7.25537 18.8721 10.5561 18.8721 14.6277C18.8721 18.6993 15.5714 22.0001 11.4997 22.0001C7.42809 22.0001 4.12739 18.6993 4.12739 14.6277C4.12739 10.5561 7.42809 7.25537 11.4997 7.25537ZM10.7976 15.0049V17.5118H12.2019V15.0049C12.7553 14.7419 13.138 14.178 13.138 13.5245C13.138 12.6197 12.4045 11.8862 11.4997 11.8862C10.5949 11.8862 9.86143 12.6197 9.86143 13.5245C9.86143 14.178 10.2441 14.742 10.7976 15.0049Z" fill="white"/>
</svg>
