<svg width="24" height="24" viewBox="0 0 24 24" fill="none" xmlns="http://www.w3.org/2000/svg">
<g clip-path="url(#clip0_134_11549)">
<path d="M1 1L12 12L23 23" stroke="#6B7280" stroke-width="2" stroke-linecap="round" stroke-linejoin="round"/>
<path d="M15 9.34009V4.00009C15.0007 3.25612 14.725 2.53841 14.2264 1.98629C13.7277 1.43417 13.0417 1.08703 12.3015 1.01227C11.5613 0.937497 10.8197 1.14043 10.2207 1.58168C9.62172 2.02293 9.20805 2.671 9.06 3.40009M9 9.00009V12.0001C9.00052 12.5931 9.17675 13.1726 9.50643 13.6654C9.83611 14.1583 10.3045 14.5424 10.8523 14.7692C11.4002 14.9961 12.0029 15.0555 12.5845 14.94C13.1661 14.8244 13.7005 14.5391 14.12 14.1201L9 9.00009Z" stroke="#6B7280" stroke-width="2" stroke-linecap="round" stroke-linejoin="round"/>
<path d="M17.0002 16.95C16.024 17.9464 14.7723 18.6285 13.4058 18.9086C12.0393 19.1887 10.6202 19.0542 9.33068 18.5223C8.04115 17.9903 6.93995 17.0853 6.16836 15.9232C5.39677 14.761 4.98998 13.3949 5.00019 12V10M19.0002 10V12C18.9998 12.4124 18.963 12.824 18.8902 13.23" stroke="#6B7280" stroke-width="2" stroke-linecap="round" stroke-linejoin="round"/>
<path d="M12 19V23" stroke="#6B7280" stroke-width="2" stroke-linecap="round" stroke-linejoin="round"/>
<path d="M8 23H16" stroke="#6B7280" stroke-width="2" stroke-linecap="round" stroke-linejoin="round"/>
</g>
<defs>
<clipPath id="clip0_134_11549">
<rect width="24" height="24" fill="white"/>
</clipPath>
</defs>
</svg>
