<svg width="57" height="56" viewBox="0 0 57 56" fill="none" xmlns="http://www.w3.org/2000/svg">
<circle cx="28.2656" cy="28" r="28" fill="white" fill-opacity="0.1"/>
<path d="M41.125 13H14.875C14.3777 13 13.9008 13.1975 13.5492 13.5492C13.1975 13.9008 13 14.3777 13 14.875V41.125C13 41.6223 13.1975 42.0992 13.5492 42.4508C13.9008 42.8025 14.3777 43 14.875 43H41.125C41.6223 43 42.0992 42.8025 42.4508 42.4508C42.8025 42.0992 43 41.6223 43 41.125V14.875C43 14.3777 42.8025 13.9008 42.4508 13.5492C42.0992 13.1975 41.6223 13 41.125 13V13ZM14.25 14.875C14.25 14.7092 14.3158 14.5503 14.4331 14.4331C14.5503 14.3158 14.7092 14.25 14.875 14.25H41.125C41.2908 14.25 41.4497 14.3158 41.5669 14.4331C41.6842 14.5503 41.75 14.7092 41.75 14.875V18H14.25V14.875ZM41.75 41.125C41.75 41.2908 41.6842 41.4497 41.5669 41.5669C41.4497 41.6842 41.2908 41.75 41.125 41.75H14.875C14.7092 41.75 14.5503 41.6842 14.4331 41.5669C14.3158 41.4497 14.25 41.2908 14.25 41.125V19.25H41.75V41.125Z" fill="#96CEB4"/>
<path d="M16.5684 15.6813C16.4507 15.5636 16.2911 15.4974 16.1246 15.4974C15.9582 15.4974 15.7986 15.5636 15.6809 15.6813C15.5632 15.7989 15.4971 15.9586 15.4971 16.125C15.4971 16.2914 15.5632 16.4511 15.6809 16.5688C15.7986 16.6864 15.9582 16.7526 16.1246 16.7526C16.2911 16.7526 16.4507 16.6864 16.5684 16.5688C16.6861 16.4511 16.7522 16.2914 16.7522 16.125C16.7522 15.9586 16.6861 15.7989 16.5684 15.6813Z" fill="#96CEB4"/>
<path d="M18 16.125C18 16.2908 18.0658 16.4497 18.1831 16.5669C18.3003 16.6842 18.4592 16.75 18.625 16.75C18.7908 16.75 18.9497 16.6842 19.0669 16.5669C19.1842 16.4497 19.25 16.2908 19.25 16.125C19.25 15.9592 19.1842 15.8003 19.0669 15.6831C18.9497 15.5658 18.7908 15.5 18.625 15.5C18.4592 15.5 18.3003 15.5658 18.1831 15.6831C18.0658 15.8003 18 15.9592 18 16.125Z" fill="#96CEB4"/>
<path d="M21.5684 15.6813C21.4507 15.5636 21.2911 15.4974 21.1246 15.4974C20.9582 15.4974 20.7986 15.5636 20.6809 15.6813C20.5632 15.7989 20.4971 15.9586 20.4971 16.125C20.4971 16.2914 20.5632 16.4511 20.6809 16.5688C20.7986 16.6864 20.9582 16.7526 21.1246 16.7526C21.2911 16.7526 21.4507 16.6864 21.5684 16.5688C21.6861 16.4511 21.7522 16.2914 21.7522 16.125C21.7522 15.9586 21.6861 15.7989 21.5684 15.6813Z" fill="#96CEB4"/>
<path d="M38.625 15.5H28.625C28.4592 15.5 28.3003 15.5658 28.1831 15.6831C28.0658 15.8003 28 15.9592 28 16.125C28 16.2908 28.0658 16.4497 28.1831 16.5669C28.3003 16.6842 28.4592 16.75 28.625 16.75H38.625C38.7908 16.75 38.9497 16.6842 39.0669 16.5669C39.1842 16.4497 39.25 16.2908 39.25 16.125C39.25 15.9592 39.1842 15.8003 39.0669 15.6831C38.9497 15.5658 38.7908 15.5 38.625 15.5Z" fill="#96CEB4"/>
<path d="M21.125 36.0437C21.125 38.0062 21.0062 38.3375 21.4812 38.5437C21.9562 38.75 21.9562 38.6188 25.0312 36.1063H28C28.663 36.1063 29.2989 35.8429 29.7678 35.374C30.2366 34.9052 30.5 34.2693 30.5 33.6063V31.125C31.125 31.125 30.5 30.75 33.8562 33.4813C33.9477 33.556 34.0585 33.6033 34.1757 33.6177C34.293 33.6321 34.4119 33.613 34.5188 33.5625C34.9875 33.3438 34.875 33.0312 34.875 31.0625C35.4145 30.9232 35.8919 30.6077 36.2316 30.1661C36.5713 29.7245 36.7538 29.1821 36.75 28.625V24.875C36.75 24.212 36.4866 23.5761 36.0178 23.1072C35.5489 22.6384 34.913 22.375 34.25 22.375H28C27.337 22.375 26.7011 22.6384 26.2322 23.1072C25.7634 23.5761 25.5 24.212 25.5 24.875V27.375H21.75C21.087 27.375 20.4511 27.6384 19.9822 28.1072C19.5134 28.5761 19.25 29.212 19.25 29.875V33.625C19.2504 34.1789 19.4348 34.717 19.7741 35.1548C20.1135 35.5926 20.5887 35.9053 21.125 36.0437ZM26.75 24.875C26.75 24.5435 26.8817 24.2255 27.1161 23.9911C27.3505 23.7567 27.6685 23.625 28 23.625H34.25C34.5815 23.625 34.8995 23.7567 35.1339 23.9911C35.3683 24.2255 35.5 24.5435 35.5 24.875V28.625C35.5 28.9565 35.3683 29.2745 35.1339 29.5089C34.8995 29.7433 34.5815 29.875 34.25 29.875C34.0842 29.875 33.9253 29.9408 33.8081 30.0581C33.6908 30.1753 33.625 30.3342 33.625 30.5V31.6812C31.0625 29.5875 31.7 29.875 30.5 29.875C30.5 29.212 30.2366 28.5761 29.7678 28.1072C29.2989 27.6384 28.663 27.375 28 27.375H26.75V24.875ZM20.5 29.875C20.5 29.5435 20.6317 29.2255 20.8661 28.9911C21.1005 28.7567 21.4185 28.625 21.75 28.625H28C28.3315 28.625 28.6495 28.7567 28.8839 28.9911C29.1183 29.2255 29.25 29.5435 29.25 29.875V33.625C29.25 33.9565 29.1183 34.2745 28.8839 34.5089C28.6495 34.7433 28.3315 34.875 28 34.875H24.8062C24.5062 34.875 24.5938 34.875 22.375 36.6812V35.5C22.375 35.3342 22.3092 35.1753 22.1919 35.0581C22.0747 34.9408 21.9158 34.875 21.75 34.875C21.4185 34.875 21.1005 34.7433 20.8661 34.5089C20.6317 34.2745 20.5 33.9565 20.5 33.625V29.875Z" fill="#96CEB4"/>
<path d="M22.375 31.125H24.875C25.0408 31.125 25.1997 31.0592 25.3169 30.9419C25.4342 30.8247 25.5 30.6658 25.5 30.5C25.5 30.3342 25.4342 30.1753 25.3169 30.0581C25.1997 29.9408 25.0408 29.875 24.875 29.875H22.375C22.2092 29.875 22.0503 29.9408 21.9331 30.0581C21.8158 30.1753 21.75 30.3342 21.75 30.5C21.75 30.6658 21.8158 30.8247 21.9331 30.9419C22.0503 31.0592 22.2092 31.125 22.375 31.125Z" fill="#96CEB4"/>
<path d="M22.375 33.625H27.375C27.5408 33.625 27.6997 33.5592 27.8169 33.4419C27.9342 33.3247 28 33.1658 28 33C28 32.8342 27.9342 32.6753 27.8169 32.5581C27.6997 32.4408 27.5408 32.375 27.375 32.375H22.375C22.2092 32.375 22.0503 32.4408 21.9331 32.5581C21.8158 32.6753 21.75 32.8342 21.75 33C21.75 33.1658 21.8158 33.3247 21.9331 33.4419C22.0503 33.5592 22.2092 33.625 22.375 33.625Z" fill="#96CEB4"/>
</svg>
