<svg width="56" height="56" viewBox="0 0 56 56" fill="none" xmlns="http://www.w3.org/2000/svg">
<circle cx="28" cy="28" r="28" fill="white" fill-opacity="0.1"/>
<g clip-path="url(#clip0_185_5275)">
<path d="M16.75 26.2375V24.875C16.75 24.7092 16.6842 24.5503 16.5669 24.4331C16.4497 24.3158 16.2908 24.25 16.125 24.25C15.9592 24.25 15.8003 24.3158 15.6831 24.4331C15.5658 24.5503 15.5 24.7092 15.5 24.875V29.875C15.5 30.0408 15.5658 30.1997 15.6831 30.3169C15.8003 30.4342 15.9592 30.5 16.125 30.5C16.2908 30.5 16.4497 30.4342 16.5669 30.3169C16.6842 30.1997 16.75 30.0408 16.75 29.875V28C16.75 27.8342 16.8158 27.6753 16.9331 27.5581C17.0503 27.4408 17.2092 27.375 17.375 27.375C17.5408 27.375 17.6997 27.4408 17.8169 27.5581C17.9342 27.6753 18 27.8342 18 28V29.875C18 30.0408 18.0658 30.1997 18.1831 30.3169C18.3003 30.4342 18.4592 30.5 18.625 30.5C18.7908 30.5 18.9497 30.4342 19.0669 30.3169C19.1842 30.1997 19.25 30.0408 19.25 29.875V28C19.2492 27.7005 19.1766 27.4055 19.0383 27.1398C18.9001 26.8741 18.7002 26.6454 18.4554 26.4728C18.2106 26.3002 17.928 26.1888 17.6313 26.1479C17.3346 26.1069 17.0324 26.1377 16.75 26.2375V26.2375Z" fill="#96CEB4"/>
<path d="M22.375 27.375C22.5408 27.375 22.6997 27.3092 22.8169 27.1919C22.9342 27.0747 23 26.9158 23 26.75C23 26.5842 22.9342 26.4253 22.8169 26.3081C22.6997 26.1908 22.5408 26.125 22.375 26.125H21.75V24.875C21.75 24.7092 21.6842 24.5503 21.5669 24.4331C21.4497 24.3158 21.2908 24.25 21.125 24.25C20.9592 24.25 20.8003 24.3158 20.6831 24.4331C20.5658 24.5503 20.5 24.7092 20.5 24.875V26.125H19.875C19.7092 26.125 19.5503 26.1908 19.4331 26.3081C19.3158 26.4253 19.25 26.5842 19.25 26.75C19.25 26.9158 19.3158 27.0747 19.4331 27.1919C19.5503 27.3092 19.7092 27.375 19.875 27.375H20.5V28.625C20.5 30.5 23 31.075 23 29.875C23 29.7092 22.9342 29.5503 22.8169 29.4331C22.6997 29.3158 22.5408 29.25 22.375 29.25C22.2092 29.25 22.0503 29.1842 21.9331 29.0669C21.8158 28.9497 21.75 28.7908 21.75 28.625V27.375H22.375Z" fill="#96CEB4"/>
<path d="M26.75 27.375C26.9158 27.375 27.0747 27.3092 27.1919 27.1919C27.3092 27.0747 27.375 26.9158 27.375 26.75C27.375 26.5842 27.3092 26.4253 27.1919 26.3081C27.0747 26.1908 26.9158 26.125 26.75 26.125H26.125V24.875C26.125 24.7092 26.0592 24.5503 25.9419 24.4331C25.8247 24.3158 25.6658 24.25 25.5 24.25C25.3342 24.25 25.1753 24.3158 25.0581 24.4331C24.9408 24.5503 24.875 24.7092 24.875 24.875V26.125H24.25C24.0842 26.125 23.9253 26.1908 23.8081 26.3081C23.6908 26.4253 23.625 26.5842 23.625 26.75C23.625 26.9158 23.6908 27.0747 23.8081 27.1919C23.9253 27.3092 24.0842 27.375 24.25 27.375H24.875V28.625C24.875 30.5 27.375 31.075 27.375 29.875C27.375 29.7092 27.3092 29.5503 27.1919 29.4331C27.0747 29.3158 26.9158 29.25 26.75 29.25C26.5842 29.25 26.4253 29.1842 26.3081 29.0669C26.1908 28.9497 26.125 28.7908 26.125 28.625V27.375H26.75Z" fill="#96CEB4"/>
<path d="M29.875 26.125H28.625C28.4592 26.125 28.3003 26.1908 28.1831 26.3081C28.0658 26.4253 28 26.5842 28 26.75V31.125C28 31.2908 28.0658 31.4497 28.1831 31.5669C28.3003 31.6842 28.4592 31.75 28.625 31.75C28.7908 31.75 28.9497 31.6842 29.0669 31.5669C29.1842 31.4497 29.25 31.2908 29.25 31.125V29.875H29.875C30.3723 29.875 30.8492 29.6775 31.2008 29.3258C31.5525 28.9742 31.75 28.4973 31.75 28C31.75 27.5027 31.5525 27.0258 31.2008 26.6742C30.8492 26.3225 30.3723 26.125 29.875 26.125ZM29.875 28.625H29.25V27.375H29.875C30.0408 27.375 30.1997 27.4408 30.3169 27.5581C30.4342 27.6753 30.5 27.8342 30.5 28C30.5 28.1658 30.4342 28.3247 30.3169 28.4419C30.1997 28.5592 30.0408 28.625 29.875 28.625Z" fill="#96CEB4"/>
<path d="M33.3879 26.175C33.2751 26.223 33.179 26.3031 33.1114 26.4054C33.0438 26.5076 33.0078 26.6275 33.0078 26.75C33.0078 26.8725 33.0438 26.9924 33.1114 27.0946C33.179 27.1969 33.2751 27.277 33.3879 27.325C33.482 27.3637 33.5842 27.3787 33.6855 27.3689C33.7868 27.3591 33.8841 27.3247 33.9691 27.2688C34.0918 27.1805 34.1784 27.0507 34.2128 26.9035C34.2471 26.7563 34.227 26.6016 34.156 26.4681C34.0851 26.3346 33.9682 26.2313 33.8269 26.1775C33.6857 26.1236 33.5297 26.1227 33.3879 26.175Z" fill="#96CEB4"/>
<path d="M34.0689 28.8063C33.9666 28.7044 33.8321 28.6411 33.6884 28.6271C33.5447 28.6131 33.4005 28.6493 33.2805 28.7296C33.1605 28.8099 33.0719 28.9292 33.0299 29.0674C32.9879 29.2056 32.9951 29.354 33.0502 29.4875C33.4252 30.4 34.7377 29.55 34.0689 28.8063Z" fill="#96CEB4"/>
<path d="M36.7502 25.35L35.5002 30.35C35.4675 30.5082 35.4974 30.673 35.5835 30.8097C35.6696 30.9464 35.8054 31.0444 35.9622 31.0832C36.119 31.122 36.2848 31.0986 36.4247 31.0178C36.5647 30.937 36.6679 30.8052 36.7127 30.65L37.9627 25.65C37.9954 25.4918 37.9656 25.327 37.8795 25.1903C37.7934 25.0536 37.6576 24.9556 37.5008 24.9168C37.344 24.878 37.1782 24.9014 37.0382 24.9822C36.8983 25.063 36.7951 25.1948 36.7502 25.35Z" fill="#96CEB4"/>
<path d="M39.2502 25.35L38.0002 30.35C37.9675 30.5082 37.9974 30.673 38.0835 30.8097C38.1696 30.9464 38.3054 31.0444 38.4622 31.0832C38.619 31.122 38.7848 31.0986 38.9247 31.0178C39.0647 30.937 39.1679 30.8052 39.2127 30.65L40.4627 25.65C40.4954 25.4918 40.4656 25.327 40.3795 25.1903C40.2934 25.0536 40.1576 24.9556 40.0008 24.9168C39.844 24.878 39.6782 24.9014 39.5382 24.9822C39.3983 25.063 39.2951 25.1948 39.2502 25.35Z" fill="#96CEB4"/>
<path d="M41.125 21.75H40.2438C35.175 11.8187 20.9 11.675 15.7562 21.75H14.875C14.3777 21.75 13.9008 21.9475 13.5492 22.2992C13.1975 22.6508 13 23.1277 13 23.625V32.375C13 32.8723 13.1975 33.3492 13.5492 33.7008C13.9008 34.0525 14.3777 34.25 14.875 34.25H15.7562C20.9188 44.3625 35.1938 44.1375 40.2438 34.25H41.125C41.6223 34.25 42.0992 34.0525 42.4508 33.7008C42.8025 33.3492 43 32.8723 43 32.375V23.625C43 23.1277 42.8025 22.6508 42.4508 22.2992C42.0992 21.9475 41.6223 21.75 41.125 21.75ZM38.825 21.75H34.6937C34.4613 20.8817 34.1604 20.0332 33.7938 19.2125C34.4463 18.9045 35.0733 18.5451 35.6688 18.1375C36.943 19.1279 38.0146 20.3544 38.825 21.75V21.75ZM22.575 21.75C22.782 21.0468 23.0346 20.3578 23.3313 19.6875C24.6301 20.1622 25.9936 20.4361 27.375 20.5V21.75H22.575ZM31.75 16.0812C32.7483 16.3919 33.7037 16.8265 34.5937 17.375C34.1552 17.6469 33.7002 17.8911 33.2312 18.1062C32.8245 17.3717 32.3268 16.6914 31.75 16.0812V16.0812ZM32.0375 18.5812C30.9377 18.9656 29.7886 19.1908 28.625 19.25V15.5625C29.875 15.8312 31.125 16.9125 32.0625 18.5687L32.0375 18.5812ZM27.375 15.5625V19.25C26.2036 19.1972 25.0459 18.9762 23.9375 18.5937C24.875 16.9125 26.125 15.8312 27.375 15.5625ZM22.7688 18.1C22.302 17.8868 21.849 17.6447 21.4125 17.375C22.2918 16.8423 23.2346 16.4224 24.2188 16.125C23.6556 16.7208 23.1685 17.3842 22.7688 18.1V18.1ZM28.625 20.5C29.9966 20.4417 31.3515 20.1761 32.6438 19.7125C32.9394 20.3747 33.192 21.0553 33.4 21.75H28.625V20.5ZM20.3125 18.1375C20.9078 18.5453 21.5348 18.9048 22.1875 19.2125C21.8273 20.0338 21.5326 20.8822 21.3062 21.75H17.175C17.9785 20.355 19.0438 19.1284 20.3125 18.1375V18.1375ZM17.175 34.25H21.3062C21.5387 35.1183 21.8396 35.9668 22.2062 36.7875C21.5537 37.0955 20.9267 37.4549 20.3312 37.8625C19.057 36.8721 17.9854 35.6456 17.175 34.25V34.25ZM33.425 34.25C33.218 34.9532 32.9654 35.6422 32.6687 36.3125C31.3699 35.8378 30.0064 35.5639 28.625 35.5V34.25H33.425ZM24.25 39.9187C23.2517 39.6081 22.2963 39.1735 21.4062 38.625C21.8448 38.3531 22.2998 38.1089 22.7688 37.8937C23.1755 38.6283 23.6732 39.3086 24.25 39.9187V39.9187ZM23.9625 37.4187C25.0623 37.0344 26.2114 36.8092 27.375 36.75V40.4375C26.125 40.1687 24.875 39.0875 23.9375 37.4312L23.9625 37.4187ZM28.625 40.4375V36.75C29.7964 36.8028 30.9541 37.0238 32.0625 37.4062C31.125 39.0875 29.875 40.1687 28.625 40.4375ZM33.2312 37.9C33.698 38.1132 34.151 38.3553 34.5875 38.625C33.7097 39.1685 32.7669 39.599 31.7812 39.9062C32.3466 39.3008 32.8337 38.6267 33.2312 37.9ZM27.375 35.5C26.0034 35.5583 24.6485 35.8238 23.3562 36.2875C23.0606 35.6253 22.808 34.9447 22.6 34.25H27.375V35.5ZM35.6875 37.8375C35.0922 37.4297 34.4652 37.0702 33.8125 36.7625C34.1715 35.9493 34.4662 35.1093 34.6937 34.25H38.825C38.0215 35.645 36.9562 36.8716 35.6875 37.8625V37.8375ZM41.75 32.375C41.75 32.5408 41.6842 32.6997 41.5669 32.8169C41.4497 32.9342 41.2908 33 41.125 33H14.875C14.7092 33 14.5503 32.9342 14.4331 32.8169C14.3158 32.6997 14.25 32.5408 14.25 32.375V23.625C14.25 23.4592 14.3158 23.3003 14.4331 23.1831C14.5503 23.0658 14.7092 23 14.875 23H41.125C41.2908 23 41.4497 23.0658 41.5669 23.1831C41.6842 23.3003 41.75 23.4592 41.75 23.625V32.375Z" fill="#96CEB4"/>
</g>
<defs>
<clipPath id="clip0_185_5275">
<rect width="30" height="30" fill="white" transform="translate(13 13)"/>
</clipPath>
</defs>
</svg>
