<svg width="56" height="56" viewBox="0 0 56 56" fill="none" xmlns="http://www.w3.org/2000/svg">
<circle cx="28" cy="28" r="28" fill="white" fill-opacity="0.1"/>
<path d="M42.2721 27.0258C42.2966 25.6803 41.8203 24.3737 40.9357 23.3595C40.0512 22.3454 38.8214 21.696 37.485 21.5375C37.3458 20.6994 37.0256 19.9017 36.5468 19.1999C36.068 18.4982 35.442 17.9091 34.7124 17.4738C33.9829 17.0385 33.1672 16.7674 32.3223 16.6793C31.4773 16.5913 30.6232 16.6883 29.8196 16.9638C29.2526 15.7796 28.363 14.7794 27.2529 14.0782C26.1429 13.377 24.8575 13.0033 23.5446 13C19.099 13 15.745 17.2687 16.6597 21.8058C15.5823 22.1867 14.6506 22.8944 13.9947 23.8301C13.3388 24.7659 12.9913 25.8831 13.0008 27.0258C12.9763 28.4541 13.5191 29.8339 14.5101 30.8627C15.5012 31.8914 16.8597 32.4853 18.2879 32.5142C21.2882 32.5142 20.904 32.4471 20.904 32.6788C20.904 33.0447 20.2942 32.3495 29.7037 41.7346C29.8737 41.9052 30.0756 42.0405 30.298 42.1329C30.5204 42.2252 30.7588 42.2727 30.9996 42.2727C31.2404 42.2727 31.4788 42.2252 31.7012 42.1329C31.9235 42.0405 32.1255 41.9052 32.2955 41.7346L37.4667 36.5634C37.6373 36.3934 37.7726 36.1915 37.8649 35.9691C37.9573 35.7467 38.0048 35.5083 38.0048 35.2675C38.0048 35.0267 37.9573 34.7883 37.8649 34.566C37.7726 34.3436 37.6373 34.1416 37.4667 33.9717L36.0092 32.5142H36.985C38.4132 32.4853 39.7717 31.8914 40.7628 30.8627C41.7538 29.8339 42.2966 28.4541 42.2721 27.0258ZM36.6069 35.6974L31.4295 40.8748C31.3153 40.9884 31.1607 41.0521 30.9996 41.0521C30.8385 41.0521 30.6839 40.9884 30.5697 40.8748L22.1481 32.4288C22.1481 27.3673 22.1481 28.3613 22.1481 28.2272C22.1481 27.742 22.3408 27.2766 22.6839 26.9335C23.027 26.5905 23.4923 26.3977 23.9775 26.3977H28.1792L36.6069 34.8376C36.7204 34.9519 36.7842 35.1064 36.7842 35.2675C36.7842 35.4286 36.7204 35.5832 36.6069 35.6974ZM28.8561 25.3488C28.6 25.0927 28.7402 25.172 23.9775 25.1903C23.1689 25.1903 22.3933 25.5115 21.8215 26.0833C21.2497 26.6551 20.9284 27.4307 20.9284 28.2394V31.2885H18.2879C17.1842 31.2597 16.1368 30.7952 15.3747 29.9964C14.6125 29.1976 14.1975 28.1296 14.2204 27.0258C14.2058 26.0567 14.5242 25.1119 15.1224 24.3494C15.7207 23.5868 16.5626 23.0527 17.5074 22.8364C17.59 22.8195 17.6682 22.7857 17.7371 22.7371C17.806 22.6884 17.8641 22.626 17.9076 22.5538C17.9512 22.4816 17.9793 22.4012 17.9901 22.3175C18.001 22.2339 17.9944 22.149 17.9708 22.068C16.8487 18.1957 19.6417 14.2196 23.5446 14.2196C24.721 14.2303 25.8665 14.5981 26.8291 15.2744C27.7918 15.9507 28.5263 16.9035 28.9354 18.0066C28.966 18.0855 29.0127 18.1571 29.0726 18.217C29.1324 18.2768 29.2041 18.3236 29.2829 18.3542C29.8196 18.5615 30.1245 17.8785 31.7222 17.8785C32.892 17.9001 34.0121 18.3548 34.866 19.1546C35.7199 19.9544 36.2467 21.0424 36.3446 22.2083C36.3598 22.3592 36.4307 22.4991 36.5435 22.6006C36.6562 22.702 36.8028 22.7579 36.9545 22.7571C37.5041 22.7674 38.0463 22.8861 38.55 23.1064C39.0537 23.3266 39.5089 23.6442 39.8896 24.0407C40.2703 24.4373 40.569 24.9051 40.7686 25.4174C40.9681 25.9296 41.0646 26.4762 41.0524 27.0258C41.077 28.1307 40.6628 29.2003 39.9004 30.0003C39.1381 30.8004 38.0897 31.2658 36.985 31.2946H34.7896L28.8561 25.3488Z" fill="#96CEB4"/>
<path d="M23.5866 27.8551C23.4219 28.0347 23.3329 28.2709 23.3381 28.5145C23.3434 28.7581 23.4425 28.9902 23.6147 29.1625C23.787 29.3348 24.0192 29.4339 24.2628 29.4391C24.5064 29.4444 24.7426 29.3554 24.9221 29.1906C25.0868 29.0111 25.1758 28.7749 25.1706 28.5313C25.1653 28.2877 25.0662 28.0556 24.8939 27.8833C24.7217 27.711 24.4895 27.6119 24.2459 27.6067C24.0023 27.6014 23.7661 27.6904 23.5866 27.8551Z" fill="#96CEB4"/>
<path d="M30.1371 31.819L27.5515 34.4046C27.4659 34.4895 27.4073 34.5979 27.3833 34.7161C27.3593 34.8343 27.3709 34.957 27.4165 35.0686C27.4622 35.1802 27.54 35.2758 27.64 35.3432C27.74 35.4106 27.8577 35.4469 27.9784 35.4474C28.326 35.4474 28.2406 35.4474 31.0274 32.6788C31.1415 32.5607 31.2039 32.4022 31.2011 32.2381C31.1982 32.074 31.1303 31.9177 31.0122 31.8037C30.8941 31.6897 30.7356 31.6272 30.5715 31.6301C30.4074 31.633 30.2511 31.7009 30.1371 31.819Z" fill="#96CEB4"/>
<path d="M31.8631 33.5448L29.2775 36.1304C29.1776 36.2471 29.1254 36.3971 29.1313 36.5506C29.1372 36.7041 29.2009 36.8497 29.3095 36.9583C29.4181 37.0669 29.5637 37.1305 29.7171 37.1364C29.8706 37.1424 30.0207 37.0901 30.1373 36.9902L32.723 34.4046C32.8229 34.288 32.8751 34.1379 32.8691 33.9844C32.8632 33.8309 32.7996 33.6854 32.691 33.5767C32.5824 33.4681 32.4368 33.4045 32.2833 33.3986C32.1298 33.3927 31.9798 33.4449 31.8631 33.5448Z" fill="#96CEB4"/>
</svg>
