<svg width="56" height="56" viewBox="0 0 56 56" fill="none" xmlns="http://www.w3.org/2000/svg">
<circle cx="28" cy="28" r="28" fill="white" fill-opacity="0.1"/>
<g clip-path="url(#clip0_185_5252)">
<path d="M28.0003 18.0833C28.8844 18.0833 29.7322 17.7673 30.3573 17.2047C30.9825 16.642 31.3337 15.879 31.3337 15.0833V14.3333C31.3337 13.5377 30.9825 12.7746 30.3573 12.212C29.7322 11.6494 28.8844 11.3333 28.0003 11.3333C27.1163 11.3333 26.2684 11.6494 25.6433 12.212C25.0182 12.7746 24.667 13.5377 24.667 14.3333V15.0833C24.667 15.879 25.0182 16.642 25.6433 17.2047C26.2684 17.7673 27.1163 18.0833 28.0003 18.0833ZM26.3337 14.3333C26.3337 13.9355 26.5093 13.554 26.8218 13.2727C27.1344 12.9914 27.5583 12.8333 28.0003 12.8333C28.4424 12.8333 28.8663 12.9914 29.1788 13.2727C29.4914 13.554 29.667 13.9355 29.667 14.3333V15.0833C29.667 15.4812 29.4914 15.8627 29.1788 16.144C28.8663 16.4253 28.4424 16.5833 28.0003 16.5833C27.5583 16.5833 27.1344 16.4253 26.8218 16.144C26.5093 15.8627 26.3337 15.4812 26.3337 15.0833V14.3333Z" fill="#96CEB4"/>
<path d="M31.0503 19.2833C29.0313 18.9759 26.9693 18.9759 24.9503 19.2833C24.1732 19.4003 23.4672 19.7614 22.9577 20.3023C22.4481 20.8433 22.168 21.5292 22.167 22.2383V25.5833C22.167 25.7822 22.2548 25.973 22.4111 26.1137C22.5673 26.2543 22.7793 26.3333 23.0003 26.3333H33.0003C33.2213 26.3333 33.4333 26.2543 33.5896 26.1137C33.7459 25.973 33.8337 25.7822 33.8337 25.5833V22.2383C33.8326 21.5292 33.5525 20.8433 33.043 20.3023C32.5335 19.7614 31.8275 19.4003 31.0503 19.2833ZM32.167 24.8333H23.8337V22.2383C23.8282 21.8799 23.9656 21.5315 24.2208 21.2564C24.4761 20.9812 24.8325 20.7974 25.2253 20.7383C27.0625 20.4608 28.9382 20.4608 30.7753 20.7383C31.1682 20.7974 31.5245 20.9812 31.7798 21.2564C32.0351 21.5315 32.1724 21.8799 32.167 22.2383V24.8333Z" fill="#96CEB4"/>
<path d="M42.1663 33.0833C43.0504 33.0833 43.8982 32.7673 44.5234 32.2047C45.1485 31.642 45.4997 30.879 45.4997 30.0833V29.3333C45.4997 28.5377 45.1485 27.7746 44.5234 27.212C43.8982 26.6494 43.0504 26.3333 42.1663 26.3333C41.2823 26.3333 40.4344 26.6494 39.8093 27.212C39.1842 27.7746 38.833 28.5377 38.833 29.3333V30.0833C38.833 30.879 39.1842 31.642 39.8093 32.2047C40.4344 32.7673 41.2823 33.0833 42.1663 33.0833ZM40.4997 29.3333C40.4997 28.9355 40.6753 28.554 40.9878 28.2727C41.3004 27.9914 41.7243 27.8333 42.1663 27.8333C42.6084 27.8333 43.0323 27.9914 43.3449 28.2727C43.6574 28.554 43.833 28.9355 43.833 29.3333V30.0833C43.833 30.4812 43.6574 30.8627 43.3449 31.144C43.0323 31.4253 42.6084 31.5833 42.1663 31.5833C41.7243 31.5833 41.3004 31.4253 40.9878 31.144C40.6753 30.8627 40.4997 30.4812 40.4997 30.0833V29.3333Z" fill="#96CEB4"/>
<path d="M45.2163 34.2833C43.1974 33.9759 41.1353 33.9759 39.1163 34.2833C38.3392 34.4003 37.6332 34.7614 37.1237 35.3023C36.6142 35.8433 36.334 36.5292 36.333 37.2383V40.5833C36.333 40.7822 36.4208 40.973 36.5771 41.1137C36.7334 41.2543 36.9453 41.3333 37.1663 41.3333H47.1663C47.3874 41.3333 47.5993 41.2543 47.7556 41.1137C47.9119 40.973 47.9997 40.7822 47.9997 40.5833V37.2383C47.9987 36.5292 47.7185 35.8433 47.209 35.3023C46.6995 34.7614 45.9935 34.4003 45.2163 34.2833ZM46.333 39.8333H37.9997V37.2383C37.9942 36.8799 38.1316 36.5315 38.3869 36.2564C38.6422 35.9812 38.9985 35.7974 39.3913 35.7383C41.2285 35.4609 43.1042 35.4609 44.9413 35.7383C45.3342 35.7974 45.6905 35.9812 45.9458 36.2564C46.2011 36.5315 46.3385 36.8799 46.333 37.2383V39.8333Z" fill="#96CEB4"/>
<path d="M13.8333 33.0833C14.7174 33.0833 15.5652 32.7673 16.1904 32.2047C16.8155 31.642 17.1667 30.879 17.1667 30.0833V29.3333C17.1667 28.5377 16.8155 27.7746 16.1904 27.212C15.5652 26.6494 14.7174 26.3333 13.8333 26.3333C12.9493 26.3333 12.1014 26.6494 11.4763 27.212C10.8512 27.7746 10.5 28.5377 10.5 29.3333V30.0833C10.5 30.879 10.8512 31.642 11.4763 32.2047C12.1014 32.7673 12.9493 33.0833 13.8333 33.0833ZM12.1667 29.3333C12.1667 28.9355 12.3423 28.554 12.6548 28.2727C12.9674 27.9914 13.3913 27.8333 13.8333 27.8333C14.2754 27.8333 14.6993 27.9914 15.0118 28.2727C15.3244 28.554 15.5 28.9355 15.5 29.3333V30.0833C15.5 30.4812 15.3244 30.8627 15.0118 31.144C14.6993 31.4253 14.2754 31.5833 13.8333 31.5833C13.3913 31.5833 12.9674 31.4253 12.6548 31.144C12.3423 30.8627 12.1667 30.4812 12.1667 30.0833V29.3333Z" fill="#96CEB4"/>
<path d="M16.8833 34.2833C14.8643 33.9759 12.8023 33.9759 10.7833 34.2833C10.0062 34.4003 9.30019 34.7614 8.79067 35.3023C8.28114 35.8433 8.00102 36.5292 8 37.2383V40.5833C8 40.7822 8.0878 40.973 8.24408 41.1137C8.40036 41.2543 8.61232 41.3333 8.83333 41.3333H18.8333C19.0543 41.3333 19.2663 41.2543 19.4226 41.1137C19.5789 40.973 19.6667 40.7822 19.6667 40.5833V37.2383C19.6656 36.5292 19.3855 35.8433 18.876 35.3023C18.3665 34.7614 17.6605 34.4003 16.8833 34.2833ZM18 39.8333H9.66667V37.2383C9.66121 36.8799 9.79857 36.5315 10.0539 36.2564C10.3091 35.9812 10.6655 35.7974 11.0583 35.7383C12.8955 35.4609 14.7712 35.4609 16.6083 35.7383C17.0012 35.7974 17.3575 35.9812 17.6128 36.2564C17.8681 36.5315 18.0055 36.8799 18 37.2383V39.8333Z" fill="#96CEB4"/>
<path d="M31.3333 33.9308L28.8333 32.6483V30.0833C28.8333 29.8844 28.7455 29.6936 28.5892 29.553C28.4329 29.4123 28.221 29.3333 28 29.3333C27.779 29.3333 27.567 29.4123 27.4107 29.553C27.2544 29.6936 27.1666 29.8844 27.1666 30.0833V32.6483L24.6666 33.9308C24.5061 34.0127 24.3803 34.1402 24.309 34.2934C24.2376 34.4465 24.2248 34.6166 24.2724 34.7771C24.3201 34.9375 24.4256 35.0792 24.5723 35.1798C24.7191 35.2805 24.8988 35.3345 25.0833 35.3333C25.3833 35.3333 25.2416 35.3333 27.9666 33.9458C30.675 35.3333 30.575 35.3333 30.8833 35.3333C31.0708 35.3416 31.2559 35.2927 31.4086 35.1945C31.5613 35.0963 31.6727 34.9546 31.7248 34.7923C31.7769 34.63 31.7666 34.4566 31.6955 34.3003C31.6244 34.1439 31.4968 34.0138 31.3333 33.9308Z" fill="#96CEB4"/>
</g>
<defs>
<clipPath id="clip0_185_5252">
<rect width="40" height="40" fill="white" transform="translate(8 8)"/>
</clipPath>
</defs>
</svg>
