<?xml version="1.0"?>
<svg xmlns="http://www.w3.org/2000/svg" version="1.1" width="256" height="256" x="0" y="0" viewBox="0 0 24 24" style="enable-background:new 0 0 512 512" xml:space="preserve"><g>
<g id="XMLID_184_">
	<path d="M23.498,6.186c-0.276-1.039-1.089-1.858-2.122-2.136C19.505,3.546,12,3.546,12,3.546s-7.505,0-9.377,0.504   C1.591,4.328,0.778,5.146,0.502,6.186C0,8.07,0,12,0,12s0,3.93,0.502,5.814c0.276,1.039,1.089,1.858,2.122,2.136   C4.495,20.454,12,20.454,12,20.454s7.505,0,9.377-0.504c1.032-0.278,1.845-1.096,2.122-2.136C24,15.93,24,12,24,12   S24,8.07,23.498,6.186z M9.546,15.569V8.431L15.818,12L9.546,15.569z" fill="#ff0a00" data-original="#000000"/>
</g>















</g></svg>
