<svg width="20" height="20" viewBox="0 0 20 20" fill="none" xmlns="http://www.w3.org/2000/svg">
<g clip-path="url(#clip0_968_5413)">
<path d="M10 12.5C11.3807 12.5 12.5 11.3807 12.5 10C12.5 8.61929 11.3807 7.5 10 7.5C8.61929 7.5 7.5 8.61929 7.5 10C7.5 11.3807 8.61929 12.5 10 12.5Z" stroke="#FAFAFA" stroke-width="2" stroke-linecap="round" stroke-linejoin="round"/>
<path d="M16.1663 12.5C16.0554 12.7513 16.0223 13.0301 16.0713 13.3005C16.1204 13.5708 16.2492 13.8202 16.4413 14.0166L16.4913 14.0666C16.6463 14.2214 16.7692 14.4052 16.8531 14.6076C16.937 14.8099 16.9802 15.0268 16.9802 15.2458C16.9802 15.4648 16.937 15.6817 16.8531 15.884C16.7692 16.0864 16.6463 16.2702 16.4913 16.425C16.3366 16.5799 16.1527 16.7029 15.9504 16.7867C15.7481 16.8706 15.5312 16.9138 15.3122 16.9138C15.0931 16.9138 14.8763 16.8706 14.6739 16.7867C14.4716 16.7029 14.2878 16.5799 14.133 16.425L14.083 16.375C13.8866 16.1829 13.6372 16.054 13.3668 16.005C13.0965 15.956 12.8177 15.989 12.5663 16.1C12.3199 16.2056 12.1097 16.381 11.9616 16.6046C11.8135 16.8282 11.7341 17.0902 11.733 17.3583V17.5C11.733 17.942 11.5574 18.3659 11.2449 18.6785C10.9323 18.991 10.5084 19.1666 10.0663 19.1666C9.62431 19.1666 9.20039 18.991 8.88783 18.6785C8.57527 18.3659 8.39967 17.942 8.39967 17.5V17.425C8.39322 17.1491 8.30394 16.8816 8.14343 16.6572C7.98293 16.4328 7.75862 16.2619 7.49967 16.1666C7.24833 16.0557 6.96951 16.0226 6.69918 16.0716C6.42885 16.1207 6.17941 16.2495 5.98301 16.4416L5.93301 16.4916C5.77822 16.6466 5.5944 16.7695 5.39207 16.8534C5.18974 16.9373 4.97287 16.9805 4.75384 16.9805C4.53481 16.9805 4.31794 16.9373 4.11561 16.8534C3.91328 16.7695 3.72946 16.6466 3.57467 16.4916C3.41971 16.3369 3.29678 16.153 3.21291 15.9507C3.12903 15.7484 3.08586 15.5315 3.08586 15.3125C3.08586 15.0935 3.12903 14.8766 3.21291 14.6742C3.29678 14.4719 3.41971 14.2881 3.57467 14.1333L3.62467 14.0833C3.81679 13.8869 3.94566 13.6375 3.99468 13.3671C4.04369 13.0968 4.0106 12.818 3.89967 12.5666C3.79404 12.3202 3.61864 12.11 3.39506 11.9619C3.17149 11.8138 2.9095 11.7344 2.64134 11.7333H2.49967C2.05765 11.7333 1.63372 11.5577 1.32116 11.2452C1.0086 10.9326 0.833008 10.5087 0.833008 10.0666C0.833008 9.62462 1.0086 9.2007 1.32116 8.88813C1.63372 8.57557 2.05765 8.39998 2.49967 8.39998H2.57467C2.8505 8.39353 3.11801 8.30424 3.34242 8.14374C3.56684 7.98323 3.73777 7.75893 3.83301 7.49998C3.94394 7.24863 3.97703 6.96982 3.92801 6.69949C3.879 6.42916 3.75012 6.17971 3.55801 5.98331L3.50801 5.93331C3.35305 5.77852 3.23012 5.59471 3.14624 5.39238C3.06237 5.19005 3.0192 4.97317 3.0192 4.75415C3.0192 4.53512 3.06237 4.31824 3.14624 4.11591C3.23012 3.91358 3.35305 3.72977 3.50801 3.57498C3.6628 3.42002 3.84661 3.29709 4.04894 3.21321C4.25127 3.12934 4.46815 3.08617 4.68717 3.08617C4.9062 3.08617 5.12308 3.12934 5.32541 3.21321C5.52774 3.29709 5.71155 3.42002 5.86634 3.57498L5.91634 3.62498C6.11274 3.81709 6.36219 3.94597 6.63252 3.99498C6.90285 4.044 7.18166 4.01091 7.43301 3.89998H7.49967C7.74615 3.79434 7.95635 3.61894 8.10442 3.39537C8.25248 3.17179 8.33194 2.9098 8.33301 2.64165V2.49998C8.33301 2.05795 8.5086 1.63403 8.82116 1.32147C9.13372 1.00891 9.55765 0.833313 9.99967 0.833313C10.4417 0.833313 10.8656 1.00891 11.1782 1.32147C11.4907 1.63403 11.6663 2.05795 11.6663 2.49998V2.57498C11.6674 2.84313 11.7469 3.10513 11.8949 3.3287C12.043 3.55228 12.2532 3.72768 12.4997 3.83331C12.751 3.94424 13.0298 3.97733 13.3002 3.92832C13.5705 3.8793 13.8199 3.75043 14.0163 3.55831L14.0663 3.50831C14.2211 3.35335 14.4049 3.23042 14.6073 3.14655C14.8096 3.06267 15.0265 3.0195 15.2455 3.0195C15.4645 3.0195 15.6814 3.06267 15.8837 3.14655C16.0861 3.23042 16.2699 3.35335 16.4247 3.50831C16.5796 3.6631 16.7026 3.84692 16.7864 4.04925C16.8703 4.25158 16.9135 4.46845 16.9135 4.68748C16.9135 4.90651 16.8703 5.12338 16.7864 5.32571C16.7026 5.52804 16.5796 5.71186 16.4247 5.86665L16.3747 5.91665C16.1826 6.11305 16.0537 6.36249 16.0047 6.63282C15.9557 6.90315 15.9887 7.18197 16.0997 7.43331V7.49998C16.2053 7.74645 16.3807 7.95666 16.6043 8.10472C16.8279 8.25279 17.0899 8.33224 17.358 8.33331H17.4997C17.9417 8.33331 18.3656 8.50891 18.6782 8.82147C18.9907 9.13403 19.1663 9.55795 19.1663 9.99998C19.1663 10.442 18.9907 10.8659 18.6782 11.1785C18.3656 11.4911 17.9417 11.6666 17.4997 11.6666H17.4247C17.1565 11.6677 16.8945 11.7472 16.671 11.8952C16.4474 12.0433 16.272 12.2535 16.1663 12.5V12.5Z" stroke="#FAFAFA" stroke-width="2" stroke-linecap="round" stroke-linejoin="round"/>
</g>
<defs>
<clipPath id="clip0_968_5413">
<rect width="20" height="20" fill="white"/>
</clipPath>
</defs>
</svg>
