<svg width="16" height="16" viewBox="0 0 16 16" fill="none" xmlns="http://www.w3.org/2000/svg">
<g clip-path="url(#clip0_947_5446)">
<path d="M11.3337 14V12.6667C11.3337 11.9594 11.0527 11.2811 10.5526 10.781C10.0525 10.281 9.37424 10 8.66699 10H3.33366C2.62641 10 1.94814 10.281 1.44804 10.781C0.947944 11.2811 0.666992 11.9594 0.666992 12.6667V14" stroke="#F3F4F6" stroke-width="2" stroke-linecap="round" stroke-linejoin="round"/>
<path d="M5.99967 7.33333C7.47243 7.33333 8.66634 6.13943 8.66634 4.66667C8.66634 3.19391 7.47243 2 5.99967 2C4.52692 2 3.33301 3.19391 3.33301 4.66667C3.33301 6.13943 4.52692 7.33333 5.99967 7.33333Z" stroke="#F3F4F6" stroke-width="2" stroke-linecap="round" stroke-linejoin="round"/>
<path d="M15.333 14V12.6667C15.3326 12.0758 15.1359 11.5019 14.7739 11.0349C14.4119 10.5679 13.9051 10.2344 13.333 10.0867" stroke="#F3F4F6" stroke-width="2" stroke-linecap="round" stroke-linejoin="round"/>
<path d="M10.667 2.08667C11.2406 2.23354 11.749 2.56714 12.1121 3.03488C12.4752 3.50262 12.6722 4.07789 12.6722 4.67C12.6722 5.26212 12.4752 5.83739 12.1121 6.30513C11.749 6.77287 11.2406 7.10647 10.667 7.25334" stroke="#F3F4F6" stroke-width="2" stroke-linecap="round" stroke-linejoin="round"/>
</g>
<defs>
<clipPath id="clip0_947_5446">
<rect width="16" height="16" fill="white"/>
</clipPath>
</defs>
</svg>
