<svg width="491" height="375" viewBox="0 0 491 375" fill="none" xmlns="http://www.w3.org/2000/svg">
<mask id="mask0_185_5304" style="mask-type:alpha" maskUnits="userSpaceOnUse" x="192" y="0" width="126" height="125">
<path d="M255.049 124.589C289.414 124.589 317.271 96.6987 317.271 62.2944C317.271 27.8902 289.414 0 255.049 0C220.685 0 192.827 27.8902 192.827 62.2944C192.827 96.6987 220.685 124.589 255.049 124.589Z" fill="white"/>
</mask>
<g mask="url(#mask0_185_5304)">
<path d="M255.049 124.589C289.414 124.589 317.271 96.6987 317.271 62.2944C317.271 27.8902 289.414 0 255.049 0C220.685 0 192.827 27.8902 192.827 62.2944C192.827 96.6987 220.685 124.589 255.049 124.589Z" fill="#ECF0FB"/>
<path fill-rule="evenodd" clip-rule="evenodd" d="M226.101 68.5722L224.871 69.0337C214.8 72.8158 207.5 81.6775 205.708 92.296L199.285 130.356H226.101V68.5722Z" fill="url(#paint0_linear_185_5304)"/>
<path fill-rule="evenodd" clip-rule="evenodd" d="M223.371 98.6924L214.176 130.356H224.359L223.371 98.6924Z" fill="#0D152A"/>
<path fill-rule="evenodd" clip-rule="evenodd" d="M262.558 61.3231C279.29 65.405 293.243 76.9172 300.441 92.5807L306.142 104.986L282.52 130.356H221.563L224.526 69.0613L249.386 61.3231H262.558Z" fill="url(#paint1_linear_185_5304)"/>
<path fill-rule="evenodd" clip-rule="evenodd" d="M238.395 37.8832C235.982 28.3865 237.933 22.9751 244.249 21.6491C253.722 19.6601 261.276 19.464 263.927 26.4447C267.303 25.7594 267.563 33.6277 264.705 50.0494L238.395 37.8832Z" fill="url(#paint2_linear_185_5304)"/>
<path fill-rule="evenodd" clip-rule="evenodd" d="M237.636 35.6121L239.096 52.4531C239.388 55.8141 242.198 58.394 245.567 58.394V61.1792L245.561 61.2833C245.358 64.6836 247.947 67.6049 251.343 67.8083C252.369 67.8697 253.394 67.6732 254.324 67.2369L265.318 62.0815L264.681 49.4899L261.299 43.2241L263.98 42.5127C265.397 42.1368 266.384 40.8531 266.384 39.3857C266.384 37.8774 265.481 36.5161 264.092 35.9313L263.842 35.8259C262.403 35.2204 260.742 35.8168 260.016 37.1992L258.528 40.031C258.91 33.764 257.79 30.2422 255.166 29.4657C252.543 28.6892 248.904 29.1781 244.249 30.9326C243.047 28.7116 241.501 28.2226 239.611 29.4657C237.721 30.7087 237.063 32.7575 237.636 35.6121Z" fill="url(#paint3_linear_185_5304)"/>
<path fill-rule="evenodd" clip-rule="evenodd" d="M245.568 58.3939C250.235 58.1896 254.085 57.3417 257.116 55.8502L245.568 63.3151V58.3939Z" fill="#0D152A"/>
<path d="M240.809 43.1712C240.354 43.2271 239.941 42.9041 239.885 42.4498C239.829 41.9955 240.152 41.5819 240.607 41.526C241.061 41.4702 241.475 41.7932 241.531 42.2475C241.586 42.7018 241.263 43.1154 240.809 43.1712Z" fill="#18233D"/>
<path d="M249.758 43.2801C249.303 43.336 248.89 43.013 248.834 42.5586C248.778 42.1043 249.102 41.6908 249.556 41.6349C250.011 41.579 250.424 41.9021 250.48 42.3564C250.536 42.8107 250.212 43.2242 249.758 43.2801Z" fill="#18233D"/>
<path d="M243.015 44.3818C242.128 46.2353 241.699 47.2809 241.728 47.5186C241.757 47.7563 242.139 47.8298 242.874 47.7393" stroke="#18233D" stroke-width="1.75" stroke-linecap="round"/>
<path fill-rule="evenodd" clip-rule="evenodd" d="M242.694 50.1176L246.844 49.6062C246.351 50.8762 245.609 51.5723 244.618 51.6944C243.627 51.8165 242.985 51.291 242.694 50.1176Z" fill="white"/>
<path d="M250.888 37.2934C249.514 36.7925 248.279 36.8456 247.184 37.4526" stroke="#18233D" stroke-width="2.7" stroke-linecap="round"/>
<path d="M241.459 37.1778C240.713 36.651 239.773 36.6522 238.638 37.1815" stroke="#18233D" stroke-width="2.7" stroke-linecap="round"/>
<path d="M252.01 40.8084L258.322 39.8932" stroke="#18233D" stroke-width="1.75" stroke-linecap="round"/>
<path d="M263.927 38.9779L261.189 40.8084" stroke="#18233D" stroke-width="1.75" stroke-linecap="round"/>
<path d="M239.095 47.6093C236.948 47.6093 235.207 45.8625 235.207 43.7076C235.207 41.5527 236.948 39.8059 239.095 39.8059C241.242 39.8059 242.982 41.5527 242.982 43.7076C242.982 45.8625 241.242 47.6093 239.095 47.6093Z" stroke="#18233D" stroke-width="1.75" stroke-linecap="round"/>
<path d="M249.386 47.6093C247.239 47.6093 245.498 45.8625 245.498 43.7076C245.498 41.5527 247.239 39.8059 249.386 39.8059C251.533 39.8059 253.273 41.5527 253.273 43.7076C253.273 45.8625 251.533 47.6093 249.386 47.6093Z" stroke="#18233D" stroke-width="1.75" stroke-linecap="round"/>
<path d="M246.052 41.5335C244.539 40.5119 243.337 40.5119 242.446 41.5335" stroke="#18233D" stroke-width="1.75" stroke-linecap="round"/>
</g>
<mask id="mask1_185_5304" style="mask-type:alpha" maskUnits="userSpaceOnUse" x="309" y="156" width="126" height="125">
<path d="M372.1 280.633C406.464 280.633 434.322 252.743 434.322 218.339C434.322 183.935 406.464 156.044 372.1 156.044C337.736 156.044 309.878 183.935 309.878 218.339C309.878 252.743 337.736 280.633 372.1 280.633Z" fill="white"/>
</mask>
<g mask="url(#mask1_185_5304)">
<path d="M372.1 280.633C406.464 280.633 434.322 252.743 434.322 218.339C434.322 183.935 406.464 156.044 372.1 156.044C337.736 156.044 309.878 183.935 309.878 218.339C309.878 252.743 337.736 280.633 372.1 280.633Z" fill="#ECF0FB"/>
<path fill-rule="evenodd" clip-rule="evenodd" d="M343.635 240.646C339.607 241.031 335.88 242.944 333.215 245.993L315.823 265.892L308.833 218.331L291.133 221.367L297.721 285.223C298.408 291.887 303.172 297.415 309.656 299.073C316.26 300.762 323.248 298.54 327.669 293.345L340.102 278.733L343.635 240.646Z" fill="url(#paint4_linear_185_5304)"/>
<path fill-rule="evenodd" clip-rule="evenodd" d="M343.635 240.646L381.87 237.694C387.362 237.27 392.621 239.993 395.448 244.726C398.428 249.714 399.55 255.596 398.616 261.333L394.66 285.61C393.677 291.643 394.202 297.825 396.188 303.605L398.147 309.304L334.506 308.055L340.903 280.84C335.744 273.714 334.528 264.46 337.671 256.24L343.635 240.646Z" fill="url(#paint5_linear_185_5304)"/>
<path fill-rule="evenodd" clip-rule="evenodd" d="M393.563 242.167L425 280.311C428.899 285.043 429.942 291.514 427.727 297.233C425.636 302.632 420.057 305.831 414.347 304.905L372.312 298.088L375.517 284.153L403.901 285.147L390.518 272.72C383.847 266.525 382.938 256.28 388.415 249.005L393.563 242.167Z" fill="url(#paint6_linear_185_5304)"/>
<path d="M372.244 196.336C378.814 199.687 386.909 196.962 390.326 190.249C393.743 183.535 391.186 175.376 384.617 172.025C378.047 168.674 369.951 171.399 366.534 178.112C363.118 184.825 365.674 192.984 372.244 196.336Z" fill="url(#paint7_linear_185_5304)"/>
<path fill-rule="evenodd" clip-rule="evenodd" d="M353.374 210.062L347.038 205.448C345.253 204.149 344.714 201.723 345.78 199.789C346.841 197.866 349.182 197.055 351.203 197.911L353.593 198.924C361.197 192.844 367.926 191.544 373.78 195.023C379.634 198.503 380.778 207.184 377.212 221.065L353.374 210.062Z" fill="url(#paint8_linear_185_5304)"/>
<path fill-rule="evenodd" clip-rule="evenodd" d="M350.028 203.826L348.503 220.373C347.933 226.551 352.421 232.044 358.582 232.71L357.707 246.147L372.102 242.014L372.954 223.211L374.472 223.574C376.249 223.999 378.119 223.481 379.425 222.203C380.644 221.011 380.846 219.121 379.906 217.698L379.811 217.553C378.837 216.077 376.908 215.574 375.338 216.387L372.954 217.622C364.796 215.888 357.366 211.686 351.671 205.585L350.028 203.826Z" fill="url(#paint9_linear_185_5304)"/>
<path d="M374.609 220.422L378.221 219.46" stroke="#18233D" stroke-width="2.052" stroke-linecap="round"/>
<path fill-rule="evenodd" clip-rule="evenodd" d="M358.582 232.71C362.147 232.691 364.986 231.662 367.1 229.624C365.105 235.473 362.146 238.557 358.225 238.876L358.582 232.71Z" fill="#0D152A"/>
<path d="M352.094 216.784C351.505 216.784 351.026 216.305 351.026 215.714C351.026 215.123 351.505 214.644 352.094 214.644C352.684 214.644 353.162 215.123 353.162 215.714C353.162 216.305 352.684 216.784 352.094 216.784Z" fill="#18233D"/>
<path d="M361.705 217.291C361.115 217.291 360.637 216.812 360.637 216.221C360.637 215.63 361.115 215.151 361.705 215.151C362.294 215.151 362.772 215.63 362.772 216.221C362.772 216.812 362.294 217.291 361.705 217.291Z" fill="#18233D"/>
<path d="M355.017 216.784C353.593 219.02 352.881 220.292 352.881 220.601C352.881 220.911 353.358 221.065 354.312 221.065" stroke="#18233D" stroke-width="2.052" stroke-linecap="round"/>
<path fill-rule="evenodd" clip-rule="evenodd" d="M355.017 224.276H359.288C358.631 225.703 357.792 226.416 356.772 226.416C355.752 226.416 355.167 225.703 355.017 224.276Z" fill="white"/>
<path d="M363.344 213.367C361.874 212.603 360.486 212.491 359.178 213.028" stroke="#18233D" stroke-width="3.078" stroke-linecap="round"/>
<path d="M353.373 212.193C352.61 211.488 351.558 211.358 350.217 211.801" stroke="#18233D" stroke-width="3.078" stroke-linecap="round"/>
</g>
<mask id="mask2_185_5304" style="mask-type:alpha" maskUnits="userSpaceOnUse" x="366" y="10" width="125" height="126">
<path d="M428.778 135.074C463.142 135.074 491 107.184 491 72.7796C491 38.3754 463.142 10.4852 428.778 10.4852C394.413 10.4852 366.556 38.3754 366.556 72.7796C366.556 107.184 394.413 135.074 428.778 135.074Z" fill="white"/>
</mask>
<g mask="url(#mask2_185_5304)">
<path d="M428.778 135.074C463.142 135.074 491 107.184 491 72.7796C491 38.3754 463.142 10.4852 428.778 10.4852C394.413 10.4852 366.556 38.3754 366.556 72.7796C366.556 107.184 394.413 135.074 428.778 135.074Z" fill="#ECF0FB"/>
<path fill-rule="evenodd" clip-rule="evenodd" d="M432.637 94.4966L475.057 83.5716L529.079 55.5176L540.856 81.5989L497.043 105.178C488.537 109.756 479.426 113.104 469.982 115.123L437.63 122.041L432.637 94.4966Z" fill="url(#paint10_linear_185_5304)"/>
<path fill-rule="evenodd" clip-rule="evenodd" d="M422.27 79.4245C418.414 65.6031 416.131 57.2958 415.421 54.5026C414.355 50.3128 417.079 47.5251 420.78 48.919C424.814 44.3284 440.593 36.9729 447.054 39.2372C453.514 41.5015 455.71 51.592 448.281 56.3627C443.329 59.5431 434.658 67.2304 422.27 79.4245Z" fill="url(#paint11_linear_185_5304)"/>
<path fill-rule="evenodd" clip-rule="evenodd" d="M447.776 53.2601L449.367 70.4397C449.966 76.9008 445.272 82.646 438.828 83.3396L439.2 94.4966L418.41 85.6869L422.649 78.9494C423.981 76.8334 424.577 74.3366 424.345 71.8466L421.931 73.1127C420.313 73.9617 418.332 73.6732 417.022 72.3975C415.749 71.1575 415.538 69.1855 416.52 67.7038L416.618 67.5559C417.638 66.0171 419.651 65.4926 421.291 66.3382L423.792 67.6275C424.986 63.8887 427.813 60.8963 431.475 59.4954L447.776 53.2601Z" fill="url(#paint12_linear_185_5304)"/>
<path d="M446.554 63.657C447.129 63.657 447.595 63.1902 447.595 62.6144C447.595 62.0386 447.129 61.5718 446.554 61.5718C445.979 61.5718 445.513 62.0386 445.513 62.6144C445.513 63.1902 445.979 63.657 446.554 63.657Z" fill="#18233D"/>
<path d="M436.14 65.7422C436.715 65.7422 437.181 65.2754 437.181 64.6996C437.181 64.1238 436.715 63.657 436.14 63.657C435.565 63.657 435.099 64.1238 435.099 64.6996C435.099 65.2754 435.565 65.7422 436.14 65.7422Z" fill="#18233D"/>
<path d="M442.388 64.6996C443.776 66.8773 444.47 68.1168 444.47 68.4181C444.47 68.7193 444.005 68.8699 443.075 68.8699" stroke="#18233D" stroke-width="2" stroke-linecap="round"/>
<path fill-rule="evenodd" clip-rule="evenodd" d="M443.475 73.0403H438.223C439.031 74.5501 440.062 75.305 441.317 75.305C442.571 75.305 443.291 74.5501 443.475 73.0403Z" fill="white"/>
<path d="M432.777 60.7148C434.415 59.8778 435.962 59.7541 437.42 60.3437" stroke="#18233D" stroke-width="3" stroke-linecap="round"/>
<path d="M444.517 59.1195C445.367 58.347 446.54 58.2039 448.035 58.6902" stroke="#18233D" stroke-width="3" stroke-linecap="round"/>
<path d="M418.957 69.3912L421.205 70.1944" stroke="#18233D" stroke-width="2" stroke-linecap="round"/>
<path fill-rule="evenodd" clip-rule="evenodd" d="M418.41 85.6869C414.154 86.1325 410.964 89.8058 408.842 96.7067C406.719 103.608 399.706 130.521 387.803 177.446L439.366 180.504L443.988 127.255C447.884 118.79 449.079 111.38 447.571 105.025C446.064 98.6703 439.681 93.621 428.421 89.8772L418.41 85.6869Z" fill="url(#paint13_linear_185_5304)"/>
<path fill-rule="evenodd" clip-rule="evenodd" d="M442.756 129.722L438.134 182.971L434.727 182.769C422.195 182.025 412.479 171.517 412.705 158.95L413.594 109.528L442.756 129.722Z" fill="#0D152A"/>
<path fill-rule="evenodd" clip-rule="evenodd" d="M413.52 112.869L416.995 150.58C418.557 167.539 433.557 180.02 450.497 178.455C451.231 178.387 451.963 178.293 452.69 178.173L501.966 170.02L493.707 141.025L446.049 147.762L443.169 109.367C442.572 101.409 435.644 95.4426 427.695 96.0403C427.493 96.0555 427.291 96.075 427.089 96.0987C418.772 97.0788 412.751 104.52 413.52 112.869Z" fill="url(#paint14_linear_185_5304)"/>
<path fill-rule="evenodd" clip-rule="evenodd" d="M438.828 83.3396C433.641 83.5297 430.609 82.0003 429.733 78.7516C430.843 84.7474 433.932 87.9608 438.999 88.3917L438.828 83.3396Z" fill="#0D152A"/>
</g>
<path d="M218.085 195.518H166.336C120.744 195.518 83.7842 232.521 83.7842 278.166C83.7842 323.811 120.744 360.814 166.336 360.814H218.085C263.678 360.814 300.637 323.811 300.637 278.166C300.637 232.521 263.678 195.518 218.085 195.518Z" fill="url(#paint15_linear_185_5304)"/>
<mask id="mask3_185_5304" style="mask-type:alpha" maskUnits="userSpaceOnUse" x="0" y="53" width="125" height="125">
<path d="M62.2221 177.632C96.5864 177.632 124.444 149.741 124.444 115.337C124.444 80.9329 96.5864 53.0428 62.2221 53.0428C27.8578 53.0428 0 80.9329 0 115.337C0 149.741 27.8578 177.632 62.2221 177.632Z" fill="white"/>
</mask>
<g mask="url(#mask3_185_5304)">
<path d="M62.2221 177.632C96.5864 177.632 124.444 149.741 124.444 115.337C124.444 80.9329 96.5864 53.0428 62.2221 53.0428C27.8578 53.0428 0 80.9329 0 115.337C0 149.741 27.8578 177.632 62.2221 177.632Z" fill="#ECF0FB"/>
<mask id="mask4_185_5304" style="mask-type:alpha" maskUnits="userSpaceOnUse" x="21" y="129" width="61" height="91">
<path d="M42.9587 135.61L25.6117 162.567C17.8247 174.669 21.3106 190.799 33.3977 198.595C33.9434 198.947 34.502 199.278 35.0724 199.588L71.3908 219.336L81.0254 195.77L46.1543 175.721L64.2966 148.543C67.9886 143.013 66.5032 135.533 60.9789 131.836C60.8308 131.737 60.6804 131.641 60.5279 131.549C54.5393 127.917 46.7508 129.717 42.9587 135.61Z" fill="white"/>
</mask>
<g mask="url(#mask4_185_5304)">
<path d="M42.9587 135.61L25.6117 162.567C17.8247 174.669 21.3106 190.799 33.3977 198.595C33.9434 198.947 34.502 199.278 35.0724 199.588L71.3908 219.336L81.0254 195.77L46.1543 175.721L64.2966 148.543C67.9886 143.013 66.5032 135.533 60.9789 131.836C60.8308 131.737 60.6804 131.641 60.5279 131.549C54.5393 127.917 46.7508 129.717 42.9587 135.61Z" fill="url(#paint16_linear_185_5304)"/>
<path fill-rule="evenodd" clip-rule="evenodd" d="M28.1004 138.319C28.0457 137.7 27.9858 137.082 27.9301 136.464C29.049 136.327 29.5661 137.191 29.4837 139.056C29.0222 138.812 28.565 138.558 28.1004 138.319Z" fill="#618978"/>
<path fill-rule="evenodd" clip-rule="evenodd" d="M46.4943 148.8C46.2463 148.748 46.0006 148.692 45.7491 148.648C45.8056 148.923 45.8714 149.197 45.9337 149.472C45.6592 149.478 45.3858 149.484 45.1124 149.481C45.6315 147.915 46.1586 146.351 46.6881 144.79C47.0307 144.86 47.3732 144.928 47.7158 144.994C47.3063 146.261 46.8992 147.53 46.4943 148.8Z" fill="#99B0C0"/>
<path fill-rule="evenodd" clip-rule="evenodd" d="M74.2568 150.524C74.7826 150.668 75.3072 150.813 75.833 150.959C75.2574 152.072 74.5639 152.363 73.7503 151.829C73.9055 151.392 74.0766 150.958 74.2568 150.524Z" fill="#DECCBC"/>
<path fill-rule="evenodd" clip-rule="evenodd" d="M32.6162 175.042C31.5987 176.445 30.5714 177.842 29.6585 179.195C27.2693 175.269 24.0961 173.039 27.0222 169.291C28.8747 171.217 30.7406 173.134 32.6162 175.042Z" fill="#294147"/>
<path fill-rule="evenodd" clip-rule="evenodd" d="M24.7515 165.932L24.8057 166.019C21.6672 166.44 18.8906 165.938 16.4747 164.514C18.8032 162.148 21.5626 162.621 24.7515 165.932Z" fill="#DECCBC"/>
<path fill-rule="evenodd" clip-rule="evenodd" d="M76.3535 132.807C76.0014 133.319 75.6554 133.841 75.3136 134.364C75.2867 133.255 75.6337 132.736 76.3535 132.807Z" fill="#000925"/>
<path fill-rule="evenodd" clip-rule="evenodd" d="M68.1651 172.547C68.2682 172.703 68.3734 172.86 68.4775 173.016C68.3026 173.121 68.1266 173.226 67.9527 173.333C67.8225 173.16 67.6944 172.986 67.5684 172.81C67.7673 172.722 67.9673 172.634 68.1651 172.547Z" fill="#000925"/>
<path fill-rule="evenodd" clip-rule="evenodd" d="M63.4141 155.848C63.362 156.158 63.311 156.469 63.262 156.78C63.2526 156.432 63.261 156.084 63.2922 155.737L63.4141 155.848Z" fill="#EBB568"/>
<path fill-rule="evenodd" clip-rule="evenodd" d="M44.4646 134.804C44.5489 134.836 44.6343 134.868 44.7197 134.901C44.676 134.923 44.6333 134.945 44.5906 134.967C44.5479 134.912 44.5062 134.858 44.4646 134.804Z" fill="#000925"/>
<path fill-rule="evenodd" clip-rule="evenodd" d="M48.3691 172.321C48.3129 172.427 48.2587 172.533 48.2025 172.64C48.1692 172.491 48.1359 172.344 48.1036 172.198C48.1931 172.239 48.2817 172.279 48.3691 172.321Z" fill="#EBB568"/>
<path fill-rule="evenodd" clip-rule="evenodd" d="M83.123 165.119C80.668 165.169 78.758 164.291 77.3955 162.486C79.3527 161.329 81.2615 162.207 83.123 165.119Z" fill="#000925"/>
<path fill-rule="evenodd" clip-rule="evenodd" d="M54.0384 163.035C53.1383 161.826 52.2445 160.611 51.3609 159.386C52.7638 159.89 54.1489 160.425 55.5264 160.971C55.4197 162.055 54.9233 162.742 54.0384 163.035Z" fill="#000925"/>
<path fill-rule="evenodd" clip-rule="evenodd" d="M36.7817 159.787C38.4413 157.128 40.8724 157.168 44.0713 159.908C42.5898 162.572 39.2528 161.352 36.7817 159.787Z" fill="#99B0C0"/>
<path fill-rule="evenodd" clip-rule="evenodd" d="M28.4509 155.547C30.6313 154.29 31.8451 154.423 32.0957 155.947C30.9108 156.212 29.7374 156.509 28.6126 156.78C28.5514 156.37 28.4982 155.959 28.4509 155.547Z" fill="#294147"/>
<path fill-rule="evenodd" clip-rule="evenodd" d="M62.6847 140.708C62.8971 140.891 63.1127 141.072 63.3262 141.254C62.9867 141.36 62.6462 141.466 62.3067 141.574C62.4285 141.284 62.5545 140.995 62.6847 140.708Z" fill="#EBB568"/>
<path fill-rule="evenodd" clip-rule="evenodd" d="M20.338 153.652C19.2197 153.486 18.1051 153.302 16.9955 153.092C17.4351 151.193 17.8736 149.294 18.3108 147.397C19.4352 147.557 20.5572 147.724 21.6816 147.881C21.338 149.848 20.8996 151.775 20.338 153.652Z" fill="#645C4B"/>
</g>
<mask id="mask5_185_5304" style="mask-type:alpha" maskUnits="userSpaceOnUse" x="29" y="126" width="59" height="102">
<path d="M65.1441 131.123L48.5706 126.637V126.637C41.1588 133.168 37.1198 142.721 37.5964 152.594L38.5334 172.003C38.6423 174.258 38.4415 176.517 37.9367 178.717L29.6798 214.707L82.9369 227.548L79.816 176.444C85.7877 173.456 88.6417 166.515 86.5014 160.184L82.054 147.03C79.4192 139.236 73.0773 133.271 65.1441 131.123Z" fill="white"/>
</mask>
<g mask="url(#mask5_185_5304)">
<path d="M65.1441 131.123L48.5706 126.637V126.637C41.1588 133.168 37.1198 142.721 37.5964 152.594L38.5334 172.003C38.6423 174.258 38.4415 176.517 37.9367 178.717L29.6798 214.707L82.9369 227.548L79.816 176.444C85.7877 173.456 88.6417 166.515 86.5014 160.184L82.054 147.03C79.4192 139.236 73.0773 133.271 65.1441 131.123Z" fill="url(#paint17_linear_185_5304)"/>
<path fill-rule="evenodd" clip-rule="evenodd" d="M77.3575 157.917C78.0981 158.905 78.8023 159.921 79.4785 160.959C76.6376 162.179 77.678 161.322 75.313 157.301C75.982 157.522 76.6655 157.726 77.3575 157.917Z" fill="#99B0C0"/>
<path fill-rule="evenodd" clip-rule="evenodd" d="M78.9575 144.979C79.252 144.57 79.5442 144.159 79.8342 143.748C80.0806 144.403 80.3079 145.064 80.5195 145.729C80.0515 145.936 79.5823 146.144 79.1142 146.354C79.0616 145.896 79.0112 145.438 78.9575 144.979Z" fill="#294147"/>
<path fill-rule="evenodd" clip-rule="evenodd" d="M47.1956 145.951C47.7859 144.809 48.4826 143.717 49.2783 142.705C49.0493 144.405 48.917 146.137 49.2095 147.68C48.5439 147.741 47.8902 147.819 47.2579 147.918C47.2332 147.263 47.2128 146.607 47.1956 145.951Z" fill="#DECCBC"/>
<path fill-rule="evenodd" clip-rule="evenodd" d="M39.3711 152.61C39.8968 152.754 40.4215 152.898 40.9473 153.044C40.3716 154.158 39.6781 154.448 38.8645 153.914C39.0198 153.477 39.1909 153.043 39.3711 152.61Z" fill="#DECCBC"/>
<path fill-rule="evenodd" clip-rule="evenodd" d="M53.6972 135.407C53.2442 133.818 53.4962 132.601 54.4512 131.758C54.2002 133.017 53.9086 134.256 53.6972 135.407Z" fill="#000925"/>
<path fill-rule="evenodd" clip-rule="evenodd" d="M41.4678 134.892C41.1156 135.404 40.7697 135.926 40.4279 136.449C40.401 135.34 40.748 134.821 41.4678 134.892Z" fill="#000925"/>
<path fill-rule="evenodd" clip-rule="evenodd" d="M33.2794 174.632C33.3825 174.788 33.4877 174.945 33.5918 175.101C33.4168 175.207 33.2409 175.311 33.067 175.418C32.9368 175.245 32.8087 175.071 32.6827 174.895C32.8816 174.807 33.0815 174.72 33.2794 174.632Z" fill="#000925"/>
<path fill-rule="evenodd" clip-rule="evenodd" d="M71.668 172.94C71.1469 172.762 70.627 172.584 70.1059 172.404C70.1946 172.061 70.2832 171.719 70.3731 171.376C70.8213 171.884 71.2513 172.406 71.668 172.94Z" fill="#DECCBC"/>
<path fill-rule="evenodd" clip-rule="evenodd" d="M51.8821 155.477C54.0751 152.959 56.7247 151.595 59.6924 151.046C58.5437 153.123 57.4034 155.202 56.3264 157.301C54.8461 156.69 53.3647 156.083 51.8821 155.477Z" fill="#294147"/>
<path fill-rule="evenodd" clip-rule="evenodd" d="M64.3785 151.908C65.4914 146.63 65.4937 147.778 71.1475 148.737C70.6783 152.419 68.4208 153.474 64.3785 151.908Z" fill="#294147"/>
<path fill-rule="evenodd" clip-rule="evenodd" d="M68.0234 132.492L67.7771 134.886C67.0124 134.004 66.2232 133.137 65.42 132.279C66.2827 132.366 67.1478 132.443 68.0234 132.492Z" fill="#294147"/>
<path fill-rule="evenodd" clip-rule="evenodd" d="M38.4567 130.471C35.9625 131.071 34.8074 130.529 32.6167 129.232C34.3599 125.517 36.3746 121.785 35.6353 119.247C37.8438 119.291 40.0522 119.335 42.2595 119.376C43.098 123.389 41.8296 127.087 38.4567 130.471Z" fill="#EBB568"/>
<path fill-rule="evenodd" clip-rule="evenodd" d="M61.4738 186.494C59.7119 179.337 69.0803 176.635 70.1055 184.438C67.1986 185.023 64.3107 185.704 61.4738 186.494Z" fill="#294147"/>
<path fill-rule="evenodd" clip-rule="evenodd" d="M48.2373 167.204C45.7823 167.254 43.8723 166.376 42.5098 164.571C44.467 163.414 46.3758 164.292 48.2373 167.204Z" fill="#000925"/>
<path fill-rule="evenodd" clip-rule="evenodd" d="M84.1641 172.718C83.4018 174.701 82.6475 176.687 81.8989 178.674C81.1639 177.313 80.355 176 79.4779 174.729C80.5075 173.639 81.5155 172.519 82.5053 171.376C83.0571 171.823 83.6111 172.272 84.1641 172.718Z" fill="#B1897A"/>
<path fill-rule="evenodd" clip-rule="evenodd" d="M59.7277 167.569C60.0432 167.104 60.366 166.634 60.6982 166.163C60.6857 166.857 60.6774 167.553 60.666 168.248C60.3806 168.006 60.0703 167.778 59.7277 167.569Z" fill="#EBB568"/>
</g>
<path fill-rule="evenodd" clip-rule="evenodd" d="M81.8691 210.069L80.9898 195.67L59.9575 148.439L62.9796 192.414C63.6628 202.355 71.9165 210.069 81.8691 210.069Z" fill="#0D152A"/>
<mask id="mask6_185_5304" style="mask-type:alpha" maskUnits="userSpaceOnUse" x="61" y="134" width="75" height="74">
<path d="M135.133 148.705L132.498 179.46C131.045 196.43 116.126 209.007 99.176 207.551C98.2515 207.472 97.331 207.351 96.4173 207.188L61.2441 200.929L68.1369 174.903L107.908 180.95L110.376 145.558C110.834 139 116.515 134.055 123.065 134.513C123.287 134.528 123.509 134.55 123.73 134.578C130.701 135.461 135.733 141.696 135.133 148.705Z" fill="white"/>
</mask>
<g mask="url(#mask6_185_5304)">
<path d="M57.4541 156.879L66.4181 186.414C71.3641 202.71 88.5689 211.906 104.846 206.955C105.734 206.685 106.609 206.374 107.469 206.025L140.574 192.581L128.427 168.559L90.7807 182.752L81.0164 148.647C79.207 142.328 72.6232 138.673 66.3109 140.485C66.0968 140.546 65.8845 140.613 65.6741 140.687C59.0387 143.002 55.4112 150.148 57.4541 156.879Z" fill="url(#paint18_linear_185_5304)"/>
<path fill-rule="evenodd" clip-rule="evenodd" d="M90.25 165.051C90.1021 165.155 89.9563 165.259 89.8074 165.363C89.7147 165.202 89.6231 165.038 89.5315 164.878C89.7689 164.938 90.0094 164.994 90.25 165.051Z" fill="#000925"/>
<path fill-rule="evenodd" clip-rule="evenodd" d="M77.3565 157.917C78.0971 158.905 78.8013 159.921 79.4775 160.959C76.6366 162.179 77.6771 161.322 75.312 157.301C75.981 157.522 76.6645 157.726 77.3565 157.917Z" fill="#99B0C0"/>
<path fill-rule="evenodd" clip-rule="evenodd" d="M100.931 173.732C100.899 173.55 100.862 173.37 100.826 173.191C101.347 173.252 101.867 173.324 102.388 173.407C101.902 173.516 101.417 173.625 100.931 173.732Z" fill="#DECCBC"/>
<path fill-rule="evenodd" clip-rule="evenodd" d="M105.426 147.918C105.282 147.637 105.137 147.356 104.991 147.075C105.624 146.842 106.256 146.604 106.877 146.354C107.116 146.838 107.36 147.321 107.595 147.806C106.871 147.841 106.149 147.878 105.426 147.918Z" fill="#99B0C0"/>
<path fill-rule="evenodd" clip-rule="evenodd" d="M78.9565 144.979C79.251 144.57 79.5433 144.159 79.8333 143.748C80.0796 144.403 80.3069 145.064 80.5186 145.729C80.0505 145.936 79.5813 146.144 79.1133 146.354C79.0606 145.896 79.0102 145.438 78.9565 144.979Z" fill="#294147"/>
<path fill-rule="evenodd" clip-rule="evenodd" d="M87.8081 134.631C88.3288 134.721 88.8505 134.786 89.3701 134.824C88.4952 135.303 87.9734 135.238 87.8081 134.631Z" fill="#000925"/>
<path fill-rule="evenodd" clip-rule="evenodd" d="M71.667 172.94C71.1459 172.762 70.626 172.584 70.1049 172.404C70.1936 172.061 70.2823 171.719 70.3722 171.376C70.8204 171.884 71.2504 172.406 71.667 172.94Z" fill="#DECCBC"/>
<path fill-rule="evenodd" clip-rule="evenodd" d="M118.55 155.848C118.428 154.467 118.828 153.416 119.621 152.61C119.939 153.829 120.269 155.046 120.611 156.259C119.931 156.146 119.243 156.012 118.55 155.848Z" fill="#99B0C0"/>
<path fill-rule="evenodd" clip-rule="evenodd" d="M110.652 163.256C110.717 163.457 110.782 163.657 110.847 163.857C110.76 163.659 110.674 163.46 110.589 163.261C110.61 163.26 110.63 163.257 110.652 163.256Z" fill="#000925"/>
<path fill-rule="evenodd" clip-rule="evenodd" d="M64.3775 151.908C65.4904 146.63 65.4927 147.778 71.1465 148.737C70.6773 152.419 68.4198 153.474 64.3775 151.908Z" fill="#294147"/>
<path fill-rule="evenodd" clip-rule="evenodd" d="M103.402 153.534C104.227 153.758 105.115 153.962 106.032 154.165C102.844 160.611 97.811 162.082 90.9323 158.578C91.3791 153.958 95.5365 152.277 103.402 153.534Z" fill="#EBB568"/>
<path fill-rule="evenodd" clip-rule="evenodd" d="M68.0225 132.492L67.7761 134.886C67.0114 134.004 66.2222 133.137 65.419 132.279C66.2818 132.366 67.1469 132.443 68.0225 132.492Z" fill="#294147"/>
<path fill-rule="evenodd" clip-rule="evenodd" d="M115.994 177.039C115.981 177.087 115.967 177.135 115.954 177.182C115.921 177.174 115.889 177.168 115.857 177.161L115.994 177.039Z" fill="#EBB568"/>
<path fill-rule="evenodd" clip-rule="evenodd" d="M61.4728 186.494C59.7109 179.337 69.0794 176.635 70.1045 184.438C67.1976 185.023 64.3097 185.704 61.4728 186.494Z" fill="#294147"/>
<path fill-rule="evenodd" clip-rule="evenodd" d="M92.71 146.457C92.5663 146.503 92.4236 146.548 92.2799 146.595C92.3809 146.433 92.4809 146.272 92.5798 146.113C92.6235 146.227 92.6693 146.342 92.71 146.457Z" fill="#EBB568"/>
<path fill-rule="evenodd" clip-rule="evenodd" d="M84.1631 172.718C83.4008 174.701 82.6465 176.687 81.8979 178.674C81.163 177.313 80.3541 176 79.4769 174.729C80.5065 173.639 81.5145 172.519 82.5043 171.376C83.0561 171.823 83.6102 172.272 84.1631 172.718Z" fill="#B1897A"/>
<path fill-rule="evenodd" clip-rule="evenodd" d="M101.346 133.434C102.566 133.119 103.433 133.466 103.949 134.477C103.239 135.305 102.525 136.135 101.81 136.971C101.655 135.785 101.497 134.604 101.346 133.434Z" fill="#618978"/>
<path fill-rule="evenodd" clip-rule="evenodd" d="M118.507 138.535C119.821 139.051 119.916 140.441 118.798 142.705C117.324 142.561 115.842 142.113 114.363 141.513C115.753 140.575 117.134 139.578 118.507 138.535Z" fill="#645C4B"/>
</g>
<path fill-rule="evenodd" clip-rule="evenodd" d="M76.9648 96.2897L81.1206 93.4936C82.8878 92.3046 83.4537 89.9604 82.4241 88.0946C81.3897 86.2201 79.1086 85.4301 77.1383 86.2639L74.8051 87.2513C67.3899 81.3282 60.8278 80.0616 55.1189 83.4516C46.5554 88.5365 46.0042 98.3681 41.5938 106.917C37.1833 115.465 25.6829 125.238 31.3762 134.394C37.0695 143.55 53.744 141.209 56.7035 129.223C58.6766 121.233 58.5932 114.737 56.4533 109.734L76.9648 96.2897Z" fill="url(#paint19_linear_185_5304)"/>
<path fill-rule="evenodd" clip-rule="evenodd" d="M78.2813 92.0265L79.7681 108.135C80.3242 114.16 75.9481 119.516 69.9398 120.165L70.7934 133.255L56.7552 129.228L57.5225 121.524C57.9278 117.455 57.5605 113.346 56.4398 109.414L54.1921 110.597C52.6826 111.391 50.8337 111.122 49.6133 109.929C48.4255 108.768 48.2287 106.926 49.1444 105.54L49.2369 105.4C50.1871 103.961 52.0674 103.471 53.5976 104.263L55.9239 105.467C63.8804 103.777 71.127 99.6824 76.6838 93.7361L78.2813 92.0265Z" fill="url(#paint20_linear_185_5304)"/>
<path d="M53.7568 107.518L51.4137 106.736" stroke="#18233D" stroke-width="1.75" stroke-linecap="round"/>
<path fill-rule="evenodd" clip-rule="evenodd" d="M69.9401 120.165C66.4644 120.146 63.6956 119.144 61.6338 117.158C63.5797 122.857 66.4648 125.861 70.2891 126.171L69.9401 120.165Z" fill="#0D152A"/>
<path d="M76.5414 104.651C77.1165 104.651 77.5827 104.184 77.5827 103.608C77.5827 103.032 77.1165 102.566 76.5414 102.566C75.9662 102.566 75.5 103.032 75.5 103.608C75.5 104.184 75.9662 104.651 76.5414 104.651Z" fill="#18233D"/>
<path d="M67.1683 105.693C67.7435 105.693 68.2097 105.226 68.2097 104.651C68.2097 104.075 67.7435 103.608 67.1683 103.608C66.5932 103.608 66.127 104.075 66.127 104.651C66.127 105.226 66.5932 105.693 67.1683 105.693Z" fill="#18233D"/>
<path d="M73.417 104.651C74.8055 106.828 75.4997 108.068 75.4997 108.369C75.4997 108.67 75.0347 108.821 74.1045 108.821" stroke="#18233D" stroke-width="2" stroke-linecap="round"/>
<path fill-rule="evenodd" clip-rule="evenodd" d="M73.4165 111.949H69.251C69.8921 113.339 70.71 114.034 71.7048 114.034C72.6995 114.034 73.2701 113.339 73.4165 111.949Z" fill="white"/>
<path d="M64.7471 101.596C66.1799 100.852 67.5339 100.742 68.8092 101.266" stroke="#18233D" stroke-width="3" stroke-linecap="round"/>
<path d="M75.0188 100.178C75.7629 99.4913 76.7891 99.364 78.0972 99.7963" stroke="#18233D" stroke-width="3" stroke-linecap="round"/>
</g>
<path fill-rule="evenodd" clip-rule="evenodd" d="M111.383 141.782L111.089 113.608C111.064 111.19 112.099 108.881 113.921 107.293C115.624 105.808 118.1 105.624 120.003 106.84L122.468 108.414L123.812 107.138C126.928 104.18 131.513 103.382 135.444 105.115L136.562 104.16C139.644 101.526 144.138 101.383 147.381 103.815L155.815 81.4006C156.572 79.3893 158.771 78.3251 160.815 78.9807C162.902 79.6498 164.167 81.7666 163.769 83.9236L158.281 113.697L159.499 118.781C160.71 123.84 159.811 129.175 157.008 133.555L148.938 146.163L111.383 141.782Z" fill="url(#paint21_linear_185_5304)"/>
<path d="M158.28 114.306C157.333 112.244 154.045 111.52 148.419 112.137C143.386 112.688 136.485 114.31 127.715 117.004L127.715 117.004C125.994 117.532 125.026 119.358 125.554 121.081C125.562 121.105 125.569 121.128 125.577 121.151C126.202 123.039 127.948 124.325 129.934 124.361L144.139 124.619L128.956 137.621" stroke="white" stroke-width="3.5" stroke-linecap="round"/>
<path d="M122.468 108.496L122.048 128.265C121.993 130.863 119.873 132.94 117.278 132.94C114.631 132.94 112.419 130.922 112.174 128.284L111.568 121.758" stroke="white" stroke-width="3.5" stroke-linecap="round"/>
<path d="M134.885 105.895L134.693 114.965M134.488 124.587L134.403 128.604C134.34 131.592 131.904 133.98 128.922 133.98C125.881 133.98 123.34 131.66 123.058 128.626L122.362 121.133" stroke="white" stroke-width="3.5" stroke-linecap="round"/>
<path d="M147.382 104.335L146.344 112.137" stroke="white" stroke-width="3.5" stroke-linecap="round"/>
<path fill-rule="evenodd" clip-rule="evenodd" d="M196.67 239.941L135.424 253.251L151.38 145.159L107.584 137.117L84.5567 258.348C81.6016 273.905 87.2291 289.852 99.29 300.097C111.633 310.583 128.046 314.925 143.952 311.913L200.103 301.281L196.67 239.941Z" fill="url(#paint22_linear_185_5304)"/>
<path fill-rule="evenodd" clip-rule="evenodd" d="M313.238 243.526L315.572 244.401C335.722 251.958 350.331 269.681 353.92 290.922L366.698 366.54H313.238V243.526Z" fill="url(#paint23_linear_185_5304)"/>
<path fill-rule="evenodd" clip-rule="evenodd" d="M318.682 303.496L337.012 366.54H316.711L318.682 303.496Z" fill="#0D152A"/>
<path fill-rule="evenodd" clip-rule="evenodd" d="M240.556 229.093L187.75 241.958L200.76 366.54H322.284L316.378 244.5L266.816 229.093H240.556Z" fill="url(#paint24_linear_185_5304)"/>
<path fill-rule="evenodd" clip-rule="evenodd" d="M193.996 302.299L209.217 298.969L200.76 366.54L193.996 302.299Z" fill="#0D152A"/>
<path fill-rule="evenodd" clip-rule="evenodd" d="M288.727 182.423C299.314 176.409 304.102 168.993 303.094 160.175C301.58 146.949 281.467 147.396 269.842 152.73C258.216 158.065 247.082 153.596 241.56 162.224C234.828 160.86 233.067 175.668 236.275 206.647L288.727 182.423Z" fill="url(#paint25_linear_185_5304)"/>
<path fill-rule="evenodd" clip-rule="evenodd" d="M290.24 177.902L287.331 211.417C286.749 218.118 281.147 223.261 274.428 223.261V228.806V255.682L235.054 230.603L236.323 205.533L243.065 193.057L237.714 191.639C234.893 190.892 232.929 188.337 232.929 185.415C232.929 182.412 234.728 179.702 237.493 178.539L237.997 178.327C240.865 177.121 244.177 178.31 245.627 181.066L248.59 186.7C253.21 187.184 258.135 186.653 263.366 185.107C268.596 183.561 272.699 181.159 275.674 177.902H290.24Z" fill="url(#paint26_linear_185_5304)"/>
<path fill-rule="evenodd" clip-rule="evenodd" d="M274.429 223.261C265.123 222.854 257.449 221.166 251.405 218.196L274.429 233.059V223.261Z" fill="#A17261"/>
<path d="M284.436 188.271C285.342 188.383 286.166 187.74 286.277 186.835C286.388 185.931 285.744 185.107 284.838 184.996C283.932 184.884 283.107 185.527 282.996 186.432C282.885 187.336 283.53 188.16 284.436 188.271Z" fill="#18233D"/>
<path d="M266.593 187.448C267.499 187.559 268.323 186.916 268.434 186.012C268.545 185.107 267.901 184.284 266.995 184.172C266.089 184.061 265.265 184.704 265.154 185.608C265.043 186.513 265.687 187.337 266.593 187.448Z" fill="#18233D"/>
<path d="M279.518 195.362C281.286 199.053 282.141 201.135 282.083 201.608C282.025 202.081 281.263 202.228 279.798 202.047" stroke="#18233D" stroke-width="3.5" stroke-linecap="round"/>
<path fill-rule="evenodd" clip-rule="evenodd" d="M251.405 218.196C255.094 208.46 261.776 203.592 271.449 203.592C281.122 203.592 286.579 204.316 287.821 205.764C292.454 215.446 291.22 221.754 284.117 224.69C277.015 227.625 266.111 225.461 251.405 218.196Z" fill="url(#paint27_linear_185_5304)"/>
<path fill-rule="evenodd" clip-rule="evenodd" d="M271.884 205.764C269.341 209.211 275.751 208.799 278.715 209.164C281.679 209.528 274.428 202.318 271.884 205.764Z" fill="white"/>
<path d="M263.83 183.117C266.428 181.793 268.884 181.597 271.197 182.53" stroke="#18233D" stroke-width="5.4" stroke-linecap="round"/>
<path d="M282.63 183.721C284.021 182.546 285.889 182.385 288.233 183.237" stroke="#18233D" stroke-width="5.4" stroke-linecap="round"/>
<path d="M237.827 184.603L243.285 188.248" stroke="#18233D" stroke-width="3.5" stroke-linecap="round"/>
<path fill-rule="evenodd" clip-rule="evenodd" d="M330.278 363.001H270.113C267.577 363.001 265.521 365.06 265.521 367.599H330.278V363.001Z" fill="url(#paint28_linear_185_5304)"/>
<path fill-rule="evenodd" clip-rule="evenodd" d="M328.792 296.669L430.795 296.669C431.842 296.669 432.819 297.195 433.397 298.069C433.988 298.963 434.187 300.061 433.949 301.106L419.426 364.799L313.018 367.599H310.59L323.347 301.172C323.849 298.559 326.134 296.669 328.792 296.669V296.669Z" fill="url(#paint29_linear_185_5304)"/>
<path fill-rule="evenodd" clip-rule="evenodd" d="M330.548 298.995H431.344C432.705 298.995 433.808 300.1 433.808 301.462C433.808 301.617 433.793 301.772 433.764 301.924L421.264 367.599H312.902L325.101 303.507C325.599 300.889 327.886 298.995 330.548 298.995Z" fill="url(#paint30_linear_185_5304)"/>
<path d="M373.612 338.529C376.486 338.529 378.816 336.187 378.816 333.297C378.816 330.407 376.486 328.064 373.612 328.064C370.738 328.064 368.408 330.407 368.408 333.297C368.408 336.187 370.738 338.529 373.612 338.529Z" fill="white"/>
<path d="M106.578 366.411L428.778 366.936" stroke="#18233D" stroke-width="3.5" stroke-linecap="round"/>
<mask id="mask7_185_5304" style="mask-type:alpha" maskUnits="userSpaceOnUse" x="139" y="343" width="42" height="32">
<path d="M139.846 343.571L147.126 374.867H175.655L180.381 343.571H139.846Z" fill="white"/>
</mask>
<g mask="url(#mask7_185_5304)">
<path d="M139.846 343.571L147.126 374.867H175.655L180.381 343.571H139.846Z" fill="url(#paint31_linear_185_5304)"/>
<path d="M142.615 356.073L144.039 356.77C146.548 357.999 149.504 357.891 151.917 356.483L153.016 355.842C154.717 354.849 156.826 354.877 158.499 355.916C160.205 356.974 162.317 357.137 164.165 356.353L164.4 356.253C166.412 355.399 168.702 355.501 170.631 356.529L171.177 356.82C173.349 357.978 176.006 357.696 177.888 356.108L179.315 354.903" stroke="white" stroke-width="2"/>
<path d="M142.615 360.246L144.039 360.943C146.548 362.172 149.504 362.064 151.917 360.656L153.016 360.014C154.717 359.022 156.826 359.05 158.499 360.089C160.205 361.147 162.317 361.31 164.165 360.526L164.4 360.426C166.412 359.572 168.702 359.673 170.631 360.702L171.177 360.993C173.349 362.151 176.006 361.869 177.888 360.281L179.315 359.076" stroke="white" stroke-width="2"/>
</g>
<path fill-rule="evenodd" clip-rule="evenodd" d="M164.059 307.314L159.649 306.155C158.613 305.883 157.954 304.865 158.129 303.807C158.317 302.67 157.823 301.528 156.867 300.886L156.387 300.565C155.248 299.801 154.929 298.266 155.668 297.11C155.84 296.84 156.013 296.57 156.185 296.3C156.001 296.006 155.817 295.712 155.633 295.418C154.944 294.315 155.277 292.862 156.379 292.172C156.44 292.133 156.503 292.097 156.568 292.064L157.08 291.806C158.089 291.297 159.319 291.659 159.892 292.633L160.079 292.949C160.579 293.799 161.556 294.244 162.525 294.065C163.302 293.92 164.048 294.434 164.192 295.212C164.204 295.276 164.212 295.341 164.215 295.406L164.307 297.384C164.363 298.574 165.371 299.493 166.559 299.437C166.585 299.436 166.612 299.434 166.638 299.432C167.27 299.379 167.825 299.849 167.878 300.482C167.898 300.721 167.842 300.96 167.72 301.166L164.059 307.314Z" fill="#0ACC94"/>
<path d="M162.418 343.496L165.001 308.673L159.19 297.44" stroke="#18233D" stroke-width="2" stroke-linecap="round"/>
<path fill-rule="evenodd" clip-rule="evenodd" d="M162.652 319.319V315.488C162.652 314.454 161.866 313.59 160.837 313.493C159.727 313.389 158.772 312.661 158.376 311.617L158.244 311.271C157.804 310.111 156.55 309.48 155.357 309.82C155.013 309.918 154.668 310.016 154.323 310.114C154.087 309.884 153.851 309.653 153.615 309.423C152.685 308.514 151.195 308.53 150.285 309.459L149.939 309.813C149.241 310.524 149.252 311.667 149.963 312.365C149.976 312.378 149.988 312.39 150.001 312.402L150.294 312.673C150.926 313.258 151.088 314.194 150.691 314.959C150.385 315.547 150.613 316.272 151.201 316.579C151.27 316.615 151.342 316.644 151.416 316.666L153.508 317.281C154.466 317.563 155.014 318.57 154.733 319.529C154.718 319.579 154.701 319.629 154.682 319.677C154.478 320.2 154.736 320.79 155.258 320.994C155.455 321.071 155.672 321.085 155.877 321.033L162.652 319.319Z" fill="#0ACC94"/>
<path d="M164.147 320.242L154.232 312.722" stroke="#18233D" stroke-width="2" stroke-linecap="round"/>
<path fill-rule="evenodd" clip-rule="evenodd" d="M166.432 310.082V306.252C166.432 305.218 167.218 304.353 168.247 304.256C169.357 304.152 170.312 303.424 170.708 302.38L170.84 302.034C171.28 300.874 172.534 300.243 173.727 300.583C174.071 300.681 174.416 300.779 174.761 300.878C174.997 300.647 175.233 300.417 175.469 300.186C176.399 299.277 177.889 299.294 178.799 300.222L179.145 300.576C179.843 301.287 179.832 302.43 179.121 303.128C179.108 303.141 179.096 303.153 179.083 303.165L178.79 303.436C178.158 304.021 177.996 304.958 178.393 305.722C178.699 306.31 178.471 307.036 177.883 307.342C177.814 307.378 177.742 307.407 177.668 307.429L175.576 308.044C174.618 308.327 174.07 309.333 174.351 310.293C174.366 310.343 174.383 310.392 174.402 310.441C174.606 310.964 174.348 311.553 173.826 311.757C173.629 311.834 173.412 311.848 173.207 311.796L166.432 310.082Z" fill="#0ACC94"/>
<path d="M164.937 311.005L174.852 303.485" stroke="#18233D" stroke-width="2" stroke-linecap="round"/>
<path fill-rule="evenodd" clip-rule="evenodd" d="M161.528 337.695V332.907C161.528 331.614 160.546 330.534 159.26 330.413C157.872 330.282 156.678 329.373 156.183 328.068L156.019 327.635C155.469 326.185 153.901 325.397 152.41 325.821C151.979 325.944 151.548 326.067 151.117 326.189C150.822 325.901 150.527 325.613 150.232 325.325C149.069 324.189 147.208 324.21 146.07 325.37L145.637 325.812C144.765 326.702 144.779 328.13 145.668 329.003C145.683 329.018 145.699 329.034 145.715 329.049L146.081 329.387C146.871 330.119 147.074 331.289 146.577 332.245C146.195 332.98 146.48 333.887 147.215 334.27C147.301 334.315 147.391 334.351 147.484 334.378L150.098 335.148C151.296 335.501 151.982 336.759 151.629 337.958C151.611 338.021 151.59 338.083 151.566 338.143C151.311 338.797 151.634 339.534 152.287 339.789C152.533 339.886 152.803 339.902 153.059 339.838L161.528 337.695Z" fill="#0ACC94"/>
<path fill-rule="evenodd" clip-rule="evenodd" d="M165.732 330.826V326.038C165.732 324.745 166.714 323.665 168 323.544C169.388 323.413 170.581 322.504 171.077 321.199L171.241 320.766C171.791 319.316 173.359 318.528 174.849 318.952C175.28 319.075 175.712 319.198 176.143 319.321C176.438 319.032 176.733 318.744 177.028 318.456C178.19 317.32 180.052 317.341 181.19 318.502L181.623 318.943C182.494 319.833 182.481 321.261 181.592 322.134C181.577 322.15 181.561 322.165 181.544 322.18L181.179 322.518C180.389 323.25 180.186 324.42 180.683 325.376C181.065 326.112 180.78 327.018 180.045 327.401C179.959 327.446 179.869 327.482 179.776 327.51L177.162 328.279C175.964 328.632 175.278 329.89 175.63 331.089C175.649 331.152 175.67 331.214 175.693 331.274C175.949 331.928 175.626 332.665 174.973 332.92C174.727 333.017 174.457 333.034 174.2 332.969L165.732 330.826Z" fill="#0ACC94"/>
<path d="M163.295 332.998L178.694 321.517" stroke="#18233D" stroke-width="2" stroke-linecap="round"/>
<path d="M162.652 338.162L148.639 328.044" stroke="#18233D" stroke-width="2" stroke-linecap="round"/>
<defs>
<linearGradient id="paint0_linear_185_5304" x1="212.693" y1="68.5722" x2="212.693" y2="130.356" gradientUnits="userSpaceOnUse">
<stop stop-color="#98D8FF"/>
<stop offset="1" stop-color="#5FB0FF"/>
</linearGradient>
<linearGradient id="paint1_linear_185_5304" x1="263.852" y1="61.3231" x2="263.852" y2="130.356" gradientUnits="userSpaceOnUse">
<stop stop-color="#98D8FF"/>
<stop offset="1" stop-color="#5FB0FF"/>
</linearGradient>
<linearGradient id="paint2_linear_185_5304" x1="252.032" y1="20.4492" x2="252.032" y2="50.0494" gradientUnits="userSpaceOnUse">
<stop stop-color="#354970"/>
<stop offset="1" stop-color="#18233D"/>
</linearGradient>
<linearGradient id="paint3_linear_185_5304" x1="251.91" y1="28.7966" x2="251.91" y2="67.8192" gradientUnits="userSpaceOnUse">
<stop stop-color="#FFBA5F"/>
<stop offset="1" stop-color="#FF9C77"/>
</linearGradient>
<linearGradient id="paint4_linear_185_5304" x1="317.384" y1="255.833" x2="317.384" y2="299.63" gradientUnits="userSpaceOnUse">
<stop stop-color="#FF555D"/>
<stop offset="1" stop-color="#B43F28"/>
</linearGradient>
<linearGradient id="paint5_linear_185_5304" x1="366.721" y1="237.651" x2="366.721" y2="309.304" gradientUnits="userSpaceOnUse">
<stop stop-color="#FF555D"/>
<stop offset="1" stop-color="#FF8444"/>
</linearGradient>
<linearGradient id="paint6_linear_185_5304" x1="400.593" y1="242.167" x2="400.593" y2="305.064" gradientUnits="userSpaceOnUse">
<stop stop-color="#FF555D"/>
<stop offset="1" stop-color="#FF8444"/>
</linearGradient>
<linearGradient id="paint7_linear_185_5304" x1="384.617" y1="172.025" x2="372.221" y2="196.324" gradientUnits="userSpaceOnUse">
<stop stop-color="#354970"/>
<stop offset="1" stop-color="#18233D"/>
</linearGradient>
<linearGradient id="paint8_linear_185_5304" x1="362.236" y1="193.123" x2="362.236" y2="221.065" gradientUnits="userSpaceOnUse">
<stop stop-color="#354970"/>
<stop offset="1" stop-color="#18233D"/>
</linearGradient>
<linearGradient id="paint9_linear_185_5304" x1="364.475" y1="203.826" x2="364.475" y2="246.147" gradientUnits="userSpaceOnUse">
<stop stop-color="#EBA3A3"/>
<stop offset="1" stop-color="#FF8A77"/>
</linearGradient>
<linearGradient id="paint10_linear_185_5304" x1="486.746" y1="55.5176" x2="486.746" y2="122.041" gradientUnits="userSpaceOnUse">
<stop stop-color="#FDD577"/>
<stop offset="1" stop-color="#F9AA42"/>
</linearGradient>
<linearGradient id="paint11_linear_185_5304" x1="434.071" y1="38.8146" x2="434.071" y2="79.4245" gradientUnits="userSpaceOnUse">
<stop stop-color="#354970"/>
<stop offset="1" stop-color="#18233D"/>
</linearGradient>
<linearGradient id="paint12_linear_185_5304" x1="432.662" y1="53.2601" x2="432.662" y2="94.4966" gradientUnits="userSpaceOnUse">
<stop stop-color="#EBA3A3"/>
<stop offset="1" stop-color="#FF8A77"/>
</linearGradient>
<linearGradient id="paint13_linear_185_5304" x1="418.002" y1="85.6869" x2="418.002" y2="180.504" gradientUnits="userSpaceOnUse">
<stop stop-color="#FDD577"/>
<stop offset="1" stop-color="#F9AA42"/>
</linearGradient>
<linearGradient id="paint14_linear_185_5304" x1="457.71" y1="95.999" x2="457.71" y2="178.588" gradientUnits="userSpaceOnUse">
<stop stop-color="#FDD577"/>
<stop offset="1" stop-color="#F9AA42"/>
</linearGradient>
<linearGradient id="paint15_linear_185_5304" x1="192.211" y1="195.518" x2="192.211" y2="360.814" gradientUnits="userSpaceOnUse">
<stop stop-color="#FAFBFF"/>
<stop offset="1" stop-color="#F3F6FF"/>
</linearGradient>
<linearGradient id="paint16_linear_185_5304" x1="52.233" y1="122.182" x2="49.9898" y2="219.307" gradientUnits="userSpaceOnUse">
<stop stop-color="#FF555D"/>
<stop offset="1" stop-color="#B45828"/>
</linearGradient>
<linearGradient id="paint17_linear_185_5304" x1="58.4444" y1="126.637" x2="58.4444" y2="227.548" gradientUnits="userSpaceOnUse">
<stop stop-color="#FF555D"/>
<stop offset="1" stop-color="#FF8444"/>
</linearGradient>
<linearGradient id="paint18_linear_185_5304" x1="90.614" y1="135.283" x2="105.846" y2="206.859" gradientUnits="userSpaceOnUse">
<stop stop-color="#FF555D"/>
<stop offset="1" stop-color="#FF8444"/>
</linearGradient>
<linearGradient id="paint19_linear_185_5304" x1="56.3815" y1="81.6007" x2="56.3815" y2="139.985" gradientUnits="userSpaceOnUse">
<stop stop-color="#354970"/>
<stop offset="1" stop-color="#18233D"/>
</linearGradient>
<linearGradient id="paint20_linear_185_5304" x1="64.193" y1="92.0265" x2="64.193" y2="133.255" gradientUnits="userSpaceOnUse">
<stop stop-color="#EBA3A3"/>
<stop offset="1" stop-color="#FF8A77"/>
</linearGradient>
<linearGradient id="paint21_linear_185_5304" x1="137.465" y1="78.7875" x2="137.465" y2="146.163" gradientUnits="userSpaceOnUse">
<stop stop-color="#FFBA5F"/>
<stop offset="1" stop-color="#FF9C77"/>
</linearGradient>
<linearGradient id="paint22_linear_185_5304" x1="141.943" y1="240.13" x2="141.943" y2="333.154" gradientUnits="userSpaceOnUse">
<stop stop-color="#FDD577"/>
<stop offset="0.113286" stop-color="#FDD476"/>
<stop offset="1" stop-color="#F9AA42"/>
</linearGradient>
<linearGradient id="paint23_linear_185_5304" x1="339.968" y1="243.526" x2="339.968" y2="366.54" gradientUnits="userSpaceOnUse">
<stop stop-color="#FFD07D"/>
<stop offset="1" stop-color="#E79B37"/>
</linearGradient>
<linearGradient id="paint24_linear_185_5304" x1="255.017" y1="229.093" x2="255.017" y2="366.54" gradientUnits="userSpaceOnUse">
<stop stop-color="#FDD577"/>
<stop offset="1" stop-color="#F9AA42"/>
</linearGradient>
<linearGradient id="paint25_linear_185_5304" x1="268.973" y1="149.237" x2="268.973" y2="206.647" gradientUnits="userSpaceOnUse">
<stop stop-color="#354970"/>
<stop offset="1" stop-color="#18233D"/>
</linearGradient>
<linearGradient id="paint26_linear_185_5304" x1="261.584" y1="177.858" x2="261.584" y2="255.682" gradientUnits="userSpaceOnUse">
<stop stop-color="#FFBA5F"/>
<stop offset="1" stop-color="#FF9C77"/>
</linearGradient>
<linearGradient id="paint27_linear_185_5304" x1="270.985" y1="203.592" x2="270.985" y2="225.957" gradientUnits="userSpaceOnUse">
<stop stop-color="#354970"/>
<stop offset="1" stop-color="#18233D"/>
</linearGradient>
<linearGradient id="paint28_linear_185_5304" x1="297.9" y1="363.001" x2="297.9" y2="367.599" gradientUnits="userSpaceOnUse">
<stop stop-color="#354970"/>
<stop offset="1" stop-color="#18233D"/>
</linearGradient>
<linearGradient id="paint29_linear_185_5304" x1="372.319" y1="296.669" x2="372.319" y2="367.599" gradientUnits="userSpaceOnUse">
<stop stop-color="#354970"/>
<stop offset="1" stop-color="#18233D"/>
</linearGradient>
<linearGradient id="paint30_linear_185_5304" x1="373.355" y1="298.995" x2="373.355" y2="367.599" gradientUnits="userSpaceOnUse">
<stop stop-color="#98D8FF"/>
<stop offset="1" stop-color="#5FB0FF"/>
</linearGradient>
<linearGradient id="paint31_linear_185_5304" x1="160.113" y1="343.571" x2="160.113" y2="374.867" gradientUnits="userSpaceOnUse">
<stop stop-color="#FFB36F"/>
<stop offset="1" stop-color="#FE8B6E"/>
</linearGradient>
</defs>
</svg>
